<?xml version="1.0" encoding="utf-8"?>
<svg version="1.1" xmlns:xlink="http://www.w3.org/1999/xlink" width="8px" height="11px" xmlns="http://www.w3.org/2000/svg">
  <g transform="matrix(1 0 0 1 -269 -527 )">
    <path d="M 1.974 1.774  C 2.562 1.13  3.346 0.807999999999993  4.326 0.807999999999993  C 5.2313 0.807999999999993  5.9733 1.06899999999999  6.552 1.59200000000001  C 7.14 2.10499999999999  7.434 2.79599999999999  7.434 3.66399999999999  C 7.434 4.523  7.1027 5.30699999999999  6.44 6.01599999999999  C 6.1133 6.36099999999999  5.4227 6.893  4.368 7.61199999999999  C 2.9493 8.57300000000001  2.1607 9.441  2.002 10.216  L 7.448 10.216  L 7.448 11  L 0.952 11  C 0.952 10.141  1.2833 9.34800000000001  1.946 8.62  C 2.3567 8.15299999999999  3.0567 7.57900000000001  4.046 6.898  C 4.886 6.30099999999999  5.4507 5.857  5.74 5.56800000000001  C 6.2907 4.971  6.566 4.33099999999999  6.566 3.65000000000001  C 6.566 2.98699999999999  6.3607 2.47399999999999  5.95 2.11000000000001  C 5.5487 1.74600000000001  5.0027 1.56399999999999  4.312 1.56399999999999  C 3.584 1.56399999999999  3.01 1.80699999999999  2.59 2.292  C 2.142 2.77699999999999  1.918 3.48699999999999  1.918 4.41999999999999  L 1.05 4.41999999999999  C 1.05 3.30000000000001  1.358 2.41800000000001  1.974 1.774  Z " fill-rule="nonzero" fill="#000819" stroke="none" transform="matrix(1 0 0 1 269 527 )" />
  </g>
</svg>