<?xml version="1.0" encoding="utf-8"?>
<svg version="1.1" xmlns:xlink="http://www.w3.org/1999/xlink" width="160px" height="32px" xmlns="http://www.w3.org/2000/svg">
  <defs>
    <mask fill="white" id="clip4">
      <path d="M 0 3.5  C 0 1.56699999999999  1.56699999999999 0  3.5 0  C 3.5 0  156.5 0  156.5 0  C 158.433 0  160 1.56699999999999  160 3.5  C 160 3.5  160 28.5  160 28.5  C 160 30.433  158.433 32  156.5 32  C 156.5 32  3.5 32  3.5 32  C 1.56699999999999 32  0 30.433  0 28.5  C 0 28.5  0 3.5  0 3.5  Z " fill-rule="evenodd" />
    </mask>
  </defs>
  <g transform="matrix(1 0 0 1 -321 -475 )">
    <path d="M 0 3.5  C 0 1.56699999999999  1.56699999999999 0  3.5 0  C 3.5 0  156.5 0  156.5 0  C 158.433 0  160 1.56699999999999  160 3.5  C 160 3.5  160 28.5  160 28.5  C 160 30.433  158.433 32  156.5 32  C 156.5 32  3.5 32  3.5 32  C 1.56699999999999 32  0 30.433  0 28.5  C 0 28.5  0 3.5  0 3.5  Z " fill-rule="nonzero" fill="#ffffff" stroke="none" transform="matrix(1 0 0 1 321 475 )" />
    <path d="M 0 3.5  C 0 1.56699999999999  1.56699999999999 0  3.5 0  C 3.5 0  156.5 0  156.5 0  C 158.433 0  160 1.56699999999999  160 3.5  C 160 3.5  160 28.5  160 28.5  C 160 30.433  158.433 32  156.5 32  C 156.5 32  3.5 32  3.5 32  C 1.56699999999999 32  0 30.433  0 28.5  C 0 28.5  0 3.5  0 3.5  Z " stroke-width="2" stroke="#ccced1" fill="none" transform="matrix(1 0 0 1 321 475 )" mask="url(#clip4)" />
  </g>
</svg>