<?xml version="1.0" encoding="utf-8"?>
<svg version="1.1" xmlns:xlink="http://www.w3.org/1999/xlink" width="11px" height="11px" xmlns="http://www.w3.org/2000/svg">
  <defs>
    <mask fill="white" id="clip5">
      <path d="M 10.125 0.15039  C 10.125 0.15039  0.875 0.15039  0.875 0.15039  C 0.875 0.15039  0.875 8.5004  0.875 8.5004  C 0.875 9.6049  1.77043 10.5004  2.875 10.5004  C 2.875 10.5004  8.125 10.5004  8.125 10.5004  C 9.2296 10.5004  10.125 9.6049  10.125 8.5004  C 10.125 8.5004  10.125 0.15039  10.125 0.15039  Z " fill-rule="evenodd" />
    </mask>
  </defs>
  <g transform="matrix(1 0 0 1 -1373 -487 )">
    <path d="M 10.125 0.15039  C 10.125 0.15039  0.875 0.15039  0.875 0.15039  C 0.875 0.15039  0.875 8.5004  0.875 8.5004  C 0.875 9.6049  1.77043 10.5004  2.875 10.5004  C 2.875 10.5004  8.125 10.5004  8.125 10.5004  C 9.2296 10.5004  10.125 9.6049  10.125 8.5004  C 10.125 8.5004  10.125 0.15039  10.125 0.15039  Z " fill-rule="nonzero" fill="#ffffff" stroke="none" fill-opacity="0" transform="matrix(1 0 0 1 1373 487 )" />
    <path d="M 10.125 0.15039  C 10.125 0.15039  0.875 0.15039  0.875 0.15039  C 0.875 0.15039  0.875 8.5004  0.875 8.5004  C 0.875 9.6049  1.77043 10.5004  2.875 10.5004  C 2.875 10.5004  8.125 10.5004  8.125 10.5004  C 9.2296 10.5004  10.125 9.6049  10.125 8.5004  C 10.125 8.5004  10.125 0.15039  10.125 0.15039  Z " stroke-width="2" stroke="#f74c4c" fill="none" transform="matrix(1 0 0 1 1373 487 )" mask="url(#clip5)" />
  </g>
</svg>