<?xml version="1.0" encoding="utf-8"?>
<svg version="1.1" xmlns:xlink="http://www.w3.org/1999/xlink" width="7px" height="4px" xmlns="http://www.w3.org/2000/svg">
  <defs>
    <mask fill="white" id="clip6">
      <path d="M 6.1998 3.15  C 6.1998 3.15  0.799799999999999 3.15  0.799799999999999 3.15  C 0.799799999999999 3.15  1.4196 1.01932  1.4196 1.01932  C 1.5952 0.69908  1.9313 0.5  2.2965 0.5  C 2.2965 0.5  4.7155 0.5  4.7155 0.5  C 5.0838 0.5  5.4222 0.70239  5.5965 1.0268  C 5.5965 1.0268  6.1998 3.15  6.1998 3.15  Z " fill-rule="evenodd" />
    </mask>
  </defs>
  <g transform="matrix(1 0 0 1 -1375 -485 )">
    <path d="M 6.1998 3.15  C 6.1998 3.15  0.799799999999999 3.15  0.799799999999999 3.15  C 0.799799999999999 3.15  1.4196 1.01932  1.4196 1.01932  C 1.5952 0.69908  1.9313 0.5  2.2965 0.5  C 2.2965 0.5  4.7155 0.5  4.7155 0.5  C 5.0838 0.5  5.4222 0.70239  5.5965 1.0268  C 5.5965 1.0268  6.1998 3.15  6.1998 3.15  Z " fill-rule="nonzero" fill="#ffffff" stroke="none" fill-opacity="0" transform="matrix(1 0 0 1 1375 485 )" />
    <path d="M 6.1998 3.15  C 6.1998 3.15  0.799799999999999 3.15  0.799799999999999 3.15  C 0.799799999999999 3.15  1.4196 1.01932  1.4196 1.01932  C 1.5952 0.69908  1.9313 0.5  2.2965 0.5  C 2.2965 0.5  4.7155 0.5  4.7155 0.5  C 5.0838 0.5  5.4222 0.70239  5.5965 1.0268  C 5.5965 1.0268  6.1998 3.15  6.1998 3.15  Z " stroke-width="2" stroke="#f74c4c" fill="none" transform="matrix(1 0 0 1 1375 485 )" mask="url(#clip6)" />
  </g>
</svg>