<?xml version="1.0" encoding="utf-8"?>
<svg version="1.1" xmlns:xlink="http://www.w3.org/1999/xlink" width="760px" height="40px" xmlns="http://www.w3.org/2000/svg">
  <g transform="matrix(1 0 0 1 -291 -280 )">
    <path d="M 292 284  A 3 3 0 0 1 295 281 L 1047 281  A 3 3 0 0 1 1050 284 L 1050 316  A 3 3 0 0 1 1047 319 L 295 319  A 3 3 0 0 1 292 316 L 292 284  Z " fill-rule="nonzero" fill="#ffffff" stroke="none" fill-opacity="0" />
    <path d="M 291.5 284  A 3.5 3.5 0 0 1 295 280.5 L 1047 280.5  A 3.5 3.5 0 0 1 1050.5 284 L 1050.5 316  A 3.5 3.5 0 0 1 1047 319.5 L 295 319.5  A 3.5 3.5 0 0 1 291.5 316 L 291.5 284  Z " stroke-width="1" stroke="#000000" fill="none" stroke-opacity="0.149019607843137" />
  </g>
</svg>