<?xml version="1.0" encoding="utf-8"?>
<svg version="1.1" xmlns:xlink="http://www.w3.org/1999/xlink" width="100px" height="40px" xmlns="http://www.w3.org/2000/svg">
  <g transform="matrix(1 0 0 1 -291 -365 )">
    <path d="M 292 369  A 3 3 0 0 1 295 366 L 387 366  A 3 3 0 0 1 390 369 L 390 401  A 3 3 0 0 1 387 404 L 295 404  A 3 3 0 0 1 292 401 L 292 369  Z " fill-rule="nonzero" fill="#ffffff" stroke="none" fill-opacity="0" />
    <path d="M 291.5 369  A 3.5 3.5 0 0 1 295 365.5 L 387 365.5  A 3.5 3.5 0 0 1 390.5 369 L 390.5 401  A 3.5 3.5 0 0 1 387 404.5 L 295 404.5  A 3.5 3.5 0 0 1 291.5 401 L 291.5 369  Z " stroke-width="1" stroke="#000000" fill="none" stroke-opacity="0.149019607843137" />
  </g>
</svg>