<?xml version="1.0" encoding="utf-8"?>
<svg version="1.1" xmlns:xlink="http://www.w3.org/1999/xlink" width="136px" height="40px" xmlns="http://www.w3.org/2000/svg">
  <g transform="matrix(1 0 0 1 -1985 -190 )">
    <path d="M 1986 194  A 3 3 0 0 1 1989 191 L 2117 191  A 3 3 0 0 1 2120 194 L 2120 226  A 3 3 0 0 1 2117 229 L 1989 229  A 3 3 0 0 1 1986 226 L 1986 194  Z " fill-rule="nonzero" fill="#ffffff" stroke="none" fill-opacity="0" />
    <path d="M 1985.5 194  A 3.5 3.5 0 0 1 1989 190.5 L 2117 190.5  A 3.5 3.5 0 0 1 2120.5 194 L 2120.5 226  A 3.5 3.5 0 0 1 2117 229.5 L 1989 229.5  A 3.5 3.5 0 0 1 1985.5 226 L 1985.5 194  Z " stroke-width="1" stroke="#000000" fill="none" stroke-opacity="0.149019607843137" />
  </g>
</svg>