<?xml version="1.0" encoding="utf-8"?>
<svg version="1.1" xmlns:xlink="http://www.w3.org/1999/xlink" width="560px" height="80px" xmlns="http://www.w3.org/2000/svg">
  <g transform="matrix(1 0 0 1 -860 -283 )">
    <path d="M 861 287  A 3 3 0 0 1 864 284 L 1416 284  A 3 3 0 0 1 1419 287 L 1419 359  A 3 3 0 0 1 1416 362 L 864 362  A 3 3 0 0 1 861 359 L 861 287  Z " fill-rule="nonzero" fill="#ffffff" stroke="none" fill-opacity="0" />
    <path d="M 860.5 287  A 3.5 3.5 0 0 1 864 283.5 L 1416 283.5  A 3.5 3.5 0 0 1 1419.5 287 L 1419.5 359  A 3.5 3.5 0 0 1 1416 362.5 L 864 362.5  A 3.5 3.5 0 0 1 860.5 359 L 860.5 287  Z " stroke-width="1" stroke="#000000" fill="none" stroke-opacity="0.149019607843137" />
  </g>
</svg>