<?xml version="1.0" encoding="utf-8"?>
<svg version="1.1" xmlns:xlink="http://www.w3.org/1999/xlink" width="400px" height="40px" xmlns="http://www.w3.org/2000/svg">
  <g transform="matrix(1 0 0 1 -2961 -190 )">
    <path d="M 2962 194  A 3 3 0 0 1 2965 191 L 3357 191  A 3 3 0 0 1 3360 194 L 3360 226  A 3 3 0 0 1 3357 229 L 2965 229  A 3 3 0 0 1 2962 226 L 2962 194  Z " fill-rule="nonzero" fill="#ffffff" stroke="none" />
    <path d="M 2961.5 194  A 3.5 3.5 0 0 1 2965 190.5 L 3357 190.5  A 3.5 3.5 0 0 1 3360.5 194 L 3360.5 226  A 3.5 3.5 0 0 1 3357 229.5 L 2965 229.5  A 3.5 3.5 0 0 1 2961.5 226 L 2961.5 194  Z " stroke-width="1" stroke="#000000" fill="none" stroke-opacity="0.149019607843137" />
  </g>
</svg>