<?xml version="1.0" encoding="utf-8"?>
<svg version="1.1" xmlns:xlink="http://www.w3.org/1999/xlink" width="560px" height="80px" xmlns="http://www.w3.org/2000/svg">
  <g transform="matrix(1 0 0 1 -2961 -401 )">
    <path d="M 2962 405  A 3 3 0 0 1 2965 402 L 3517 402  A 3 3 0 0 1 3520 405 L 3520 477  A 3 3 0 0 1 3517 480 L 2965 480  A 3 3 0 0 1 2962 477 L 2962 405  Z " fill-rule="nonzero" fill="#ffffff" stroke="none" />
    <path d="M 2961.5 405  A 3.5 3.5 0 0 1 2965 401.5 L 3517 401.5  A 3.5 3.5 0 0 1 3520.5 405 L 3520.5 477  A 3.5 3.5 0 0 1 3517 480.5 L 2965 480.5  A 3.5 3.5 0 0 1 2961.5 477 L 2961.5 405  Z " stroke-width="1" stroke="#000000" fill="none" stroke-opacity="0.149019607843137" />
  </g>
</svg>