<?xml version="1.0" encoding="utf-8"?>
<svg version="1.1" xmlns:xlink="http://www.w3.org/1999/xlink" width="268px" height="40px" xmlns="http://www.w3.org/2000/svg">
  <g transform="matrix(1 0 0 1 -1561 -206 )">
    <path d="M 1562 210  A 3 3 0 0 1 1565 207 L 1825 207  A 3 3 0 0 1 1828 210 L 1828 242  A 3 3 0 0 1 1825 245 L 1565 245  A 3 3 0 0 1 1562 242 L 1562 210  Z " fill-rule="nonzero" fill="#f2f2f2" stroke="none" />
    <path d="M 1561.5 210  A 3.5 3.5 0 0 1 1565 206.5 L 1825 206.5  A 3.5 3.5 0 0 1 1828.5 210 L 1828.5 242  A 3.5 3.5 0 0 1 1825 245.5 L 1565 245.5  A 3.5 3.5 0 0 1 1561.5 242 L 1561.5 210  Z " stroke-width="1" stroke="#000000" fill="none" stroke-opacity="0.149019607843137" />
  </g>
</svg>