<?xml version="1.0" encoding="utf-8"?>
<svg version="1.1" xmlns:xlink="http://www.w3.org/1999/xlink" width="560px" height="150px" xmlns="http://www.w3.org/2000/svg">
  <g transform="matrix(1 0 0 1 -1561 -791 )">
    <path d="M 1562 795  A 3 3 0 0 1 1565 792 L 2117 792  A 3 3 0 0 1 2120 795 L 2120 937  A 3 3 0 0 1 2117 940 L 1565 940  A 3 3 0 0 1 1562 937 L 1562 795  Z " fill-rule="nonzero" fill="#f2f2f2" stroke="none" />
    <path d="M 1561.5 795  A 3.5 3.5 0 0 1 1565 791.5 L 2117 791.5  A 3.5 3.5 0 0 1 2120.5 795 L 2120.5 937  A 3.5 3.5 0 0 1 2117 940.5 L 1565 940.5  A 3.5 3.5 0 0 1 1561.5 937 L 1561.5 795  Z " stroke-width="1" stroke="#000000" fill="none" stroke-opacity="0.149019607843137" />
  </g>
</svg>