<?xml version="1.0" encoding="utf-8"?>
<svg version="1.1" xmlns:xlink="http://www.w3.org/1999/xlink" width="400px" height="40px" xmlns="http://www.w3.org/2000/svg">
  <g transform="matrix(1 0 0 1 -1561 -113 )">
    <path d="M 1562 117  A 3 3 0 0 1 1565 114 L 1957 114  A 3 3 0 0 1 1960 117 L 1960 149  A 3 3 0 0 1 1957 152 L 1565 152  A 3 3 0 0 1 1562 149 L 1562 117  Z " fill-rule="nonzero" fill="#f2f2f2" stroke="none" />
    <path d="M 1561.5 117  A 3.5 3.5 0 0 1 1565 113.5 L 1957 113.5  A 3.5 3.5 0 0 1 1960.5 117 L 1960.5 149  A 3.5 3.5 0 0 1 1957 152.5 L 1565 152.5  A 3.5 3.5 0 0 1 1561.5 149 L 1561.5 117  Z " stroke-width="1" stroke="#000000" fill="none" stroke-opacity="0.149019607843137" />
  </g>
</svg>