<?xml version="1.0" encoding="utf-8"?>
<svg version="1.1" xmlns:xlink="http://www.w3.org/1999/xlink" width="560px" height="40px" xmlns="http://www.w3.org/2000/svg">
  <g transform="matrix(1 0 0 1 -1561 -605 )">
    <path d="M 1562 609  A 3 3 0 0 1 1565 606 L 2117 606  A 3 3 0 0 1 2120 609 L 2120 641  A 3 3 0 0 1 2117 644 L 1565 644  A 3 3 0 0 1 1562 641 L 1562 609  Z " fill-rule="nonzero" fill="#f2f2f2" stroke="none" />
    <path d="M 1561.5 609  A 3.5 3.5 0 0 1 1565 605.5 L 2117 605.5  A 3.5 3.5 0 0 1 2120.5 609 L 2120.5 641  A 3.5 3.5 0 0 1 2117 644.5 L 1565 644.5  A 3.5 3.5 0 0 1 1561.5 641 L 1561.5 609  Z " stroke-width="1" stroke="#000000" fill="none" stroke-opacity="0.149019607843137" />
  </g>
</svg>