<?xml version="1.0" encoding="utf-8"?>
<svg version="1.1" xmlns:xlink="http://www.w3.org/1999/xlink" width="14px" height="14px" xmlns="http://www.w3.org/2000/svg">
  <g transform="matrix(1 0 0 1 -1339 -260 )">
    <path d="M 1346 260  C 1349.92 260  1353 263.08  1353 267  C 1353 270.92  1349.92 274  1346 274  C 1342.08 274  1339 270.92  1339 267  C 1339 263.08  1342.08 260  1346 260  Z " fill-rule="nonzero" fill="#ffffff" stroke="none" fill-opacity="0" />
    <path d="M 1346 260.5  C 1349.64 260.5  1352.5 263.36  1352.5 267  C 1352.5 270.64  1349.64 273.5  1346 273.5  C 1342.36 273.5  1339.5 270.64  1339.5 267  C 1339.5 263.36  1342.36 260.5  1346 260.5  Z " stroke-width="1" stroke="#ffffff" fill="none" />
  </g>
</svg>