<?xml version="1.0" encoding="utf-8"?>
<svg version="1.1" xmlns:xlink="http://www.w3.org/1999/xlink" width="12px" height="12px" xmlns="http://www.w3.org/2000/svg">
  <g transform="matrix(1 0 0 1 -1250 -261 )">
    <path d="M 10.9001 5  C 10.4371 2.7178  8.4187 1  6 1  C 4.4476 1  3.0606 1.707  2.1427 2.8184  C 1.9669 3.0313  1.6517 3.0614  1.4388 2.8855  C 1.2259 2.7097  1.1958 2.3945  1.3717 2.1816  C 2.4714 0.85  4.1367 0  6 0  C 8.9417 0  11.3881 2.1165  11.9011 4.9097  C 11.9066 4.9397  11.9119 4.9698  11.917 5  L 10.9001 5  Z M 0.0831 7  L 1.1 7  C 1.563 9.2822  3.5814 11  6 11  C 7.5525 11  8.9395 10.293  9.8574 9.1816  C 10.0332 8.9687  10.3484 8.9386  10.5613 9.1145  C 10.7742 9.2903  10.8042 9.6055  10.6284 9.8184  C 9.5287 11.15  7.8634 12  6 12  C 3.0583 12  0.612 9.8835  0.0990000000000002 7.0903  C 0.0934000000000008 7.0603  0.0881000000000007 7.0302  0.0831 7  Z " fill-rule="nonzero" fill="#0e66fb" stroke="none" transform="matrix(1 0 0 1 1250 261 )" />
  </g>
</svg>