<?xml version="1.0" encoding="utf-8"?>
<svg version="1.1" xmlns:xlink="http://www.w3.org/1999/xlink" width="270px" height="32px" xmlns="http://www.w3.org/2000/svg">
  <g transform="matrix(1 0 0 1 -1130 -203 )">
    <path d="M 1131 206.5  A 2.5 2.5 0 0 1 1133.5 204 L 1396.5 204  A 2.5 2.5 0 0 1 1399 206.5 L 1399 231.5  A 2.5 2.5 0 0 1 1396.5 234 L 1133.5 234  A 2.5 2.5 0 0 1 1131 231.5 L 1131 206.5  Z " fill-rule="nonzero" fill="#ffffff" stroke="none" />
    <path d="M 1130.5 206.5  A 3 3 0 0 1 1133.5 203.5 L 1396.5 203.5  A 3 3 0 0 1 1399.5 206.5 L 1399.5 231.5  A 3 3 0 0 1 1396.5 234.5 L 1133.5 234.5  A 3 3 0 0 1 1130.5 231.5 L 1130.5 206.5  Z " stroke-width="1" stroke="#000819" fill="none" stroke-opacity="0.149019607843137" />
  </g>
</svg>