<?xml version="1.0" encoding="utf-8"?>
<svg version="1.1" xmlns:xlink="http://www.w3.org/1999/xlink" width="600px" height="72px" xmlns="http://www.w3.org/2000/svg">
  <defs>
    <mask fill="white" id="clip14">
      <path d="M 0 4.2  C 0 1.88040000000001  1.9266393442623 0  4.30327868852459 0  C 4.30327868852459 0  595.696721311475 0  595.696721311475 0  C 598.073360655738 0  600 1.88040000000001  600 4.2  C 600 4.2  600 67.8  600 67.8  C 600 70.1196  598.073360655738 72  595.696721311475 72  C 595.696721311475 72  4.30327868852459 72  4.30327868852459 72  C 1.9266393442623 72  0 70.1196  0 67.8  C 0 67.8  0 4.2  0 4.2  Z " fill-rule="evenodd" />
    </mask>
  </defs>
  <g transform="matrix(1 0 0 1 -257 -1144 )">
    <path d="M 0 4.2  C 0 1.88040000000001  1.9266393442623 0  4.30327868852459 0  C 4.30327868852459 0  595.696721311475 0  595.696721311475 0  C 598.073360655738 0  600 1.88040000000001  600 4.2  C 600 4.2  600 67.8  600 67.8  C 600 70.1196  598.073360655738 72  595.696721311475 72  C 595.696721311475 72  4.30327868852459 72  4.30327868852459 72  C 1.9266393442623 72  0 70.1196  0 67.8  C 0 67.8  0 4.2  0 4.2  Z " fill-rule="nonzero" fill="#ffffff" stroke="none" fill-opacity="0" transform="matrix(1 0 0 1 257 1144 )" />
    <path d="M 0 4.2  C 0 1.88040000000001  1.9266393442623 0  4.30327868852459 0  C 4.30327868852459 0  595.696721311475 0  595.696721311475 0  C 598.073360655738 0  600 1.88040000000001  600 4.2  C 600 4.2  600 67.8  600 67.8  C 600 70.1196  598.073360655738 72  595.696721311475 72  C 595.696721311475 72  4.30327868852459 72  4.30327868852459 72  C 1.9266393442623 72  0 70.1196  0 67.8  C 0 67.8  0 4.2  0 4.2  Z " stroke-width="2" stroke="#000819" fill="none" stroke-opacity="0.149019607843137" transform="matrix(1 0 0 1 257 1144 )" mask="url(#clip14)" />
  </g>
</svg>