<?xml version="1.0" encoding="utf-8"?>
<svg version="1.1" xmlns:xlink="http://www.w3.org/1999/xlink" width="596px" height="72px" xmlns="http://www.w3.org/2000/svg">
  <defs>
    <mask fill="white" id="clip15">
      <path d="M 0 4.2  C 0 1.88040000000001  1.91379508196721 0  4.27459016393443 0  C 4.27459016393443 0  591.725409836066 0  591.725409836066 0  C 594.086204918033 0  596 1.88040000000001  596 4.2  C 596 4.2  596 67.8  596 67.8  C 596 70.1196  594.086204918033 72  591.725409836066 72  C 591.725409836066 72  4.27459016393443 72  4.27459016393443 72  C 1.91379508196721 72  0 70.1196  0 67.8  C 0 67.8  0 4.2  0 4.2  Z " fill-rule="evenodd" />
    </mask>
  </defs>
  <g transform="matrix(1 0 0 1 -257 -1950 )">
    <path d="M 0 4.2  C 0 1.88040000000001  1.91379508196721 0  4.27459016393443 0  C 4.27459016393443 0  591.725409836066 0  591.725409836066 0  C 594.086204918033 0  596 1.88040000000001  596 4.2  C 596 4.2  596 67.8  596 67.8  C 596 70.1196  594.086204918033 72  591.725409836066 72  C 591.725409836066 72  4.27459016393443 72  4.27459016393443 72  C 1.91379508196721 72  0 70.1196  0 67.8  C 0 67.8  0 4.2  0 4.2  Z " fill-rule="nonzero" fill="#ffffff" stroke="none" fill-opacity="0" transform="matrix(1 0 0 1 257 1950 )" />
    <path d="M 0 4.2  C 0 1.88040000000001  1.91379508196721 0  4.27459016393443 0  C 4.27459016393443 0  591.725409836066 0  591.725409836066 0  C 594.086204918033 0  596 1.88040000000001  596 4.2  C 596 4.2  596 67.8  596 67.8  C 596 70.1196  594.086204918033 72  591.725409836066 72  C 591.725409836066 72  4.27459016393443 72  4.27459016393443 72  C 1.91379508196721 72  0 70.1196  0 67.8  C 0 67.8  0 4.2  0 4.2  Z " stroke-width="2" stroke="#000819" fill="none" stroke-opacity="0.149019607843137" transform="matrix(1 0 0 1 257 1950 )" mask="url(#clip15)" />
  </g>
</svg>