<?xml version="1.0" encoding="utf-8"?>
<svg version="1.1" xmlns:xlink="http://www.w3.org/1999/xlink" width="16px" height="16px" xmlns="http://www.w3.org/2000/svg">
  <g transform="matrix(1 0 0 1 -1138 -1613 )">
    <path d="M 1146 1613  C 1150.48 1613  1154 1616.52  1154 1621  C 1154 1625.48  1150.48 1629  1146 1629  C 1141.52 1629  1138 1625.48  1138 1621  C 1138 1616.52  1141.52 1613  1146 1613  Z " fill-rule="nonzero" fill="#000819" stroke="none" fill-opacity="0.0392156862745098" />
    <path d="M 1146 1613.5  C 1150.2 1613.5  1153.5 1616.8  1153.5 1621  C 1153.5 1625.2  1150.2 1628.5  1146 1628.5  C 1141.8 1628.5  1138.5 1625.2  1138.5 1621  C 1138.5 1616.8  1141.8 1613.5  1146 1613.5  Z " stroke-width="1" stroke="#797979" fill="none" />
  </g>
</svg>