<?xml version="1.0" encoding="utf-8"?>
<svg version="1.1" xmlns:xlink="http://www.w3.org/1999/xlink" width="35px" height="12px" xmlns="http://www.w3.org/2000/svg">
  <g transform="matrix(1 0 0 1 -1076 -483 )">
    <path d="M 1.51499999999999 3.40899999999999  C 2.01900000000001 2.46500000000003  2.78699999999998 1.99300000000005  3.81900000000002 1.99300000000005  C 4.851 1.99300000000005  5.61900000000003 2.46500000000003  6.12299999999999 3.40899999999999  C 6.53899999999999 4.17700000000002  6.74700000000001 5.18899999999996  6.74700000000001 6.44500000000005  C 6.74700000000001 7.68499999999995  6.53899999999999 8.697  6.12299999999999 9.48099999999999  C 5.61099999999999 10.425  4.84300000000002 10.897  3.81900000000002 10.897  C 2.79500000000002 10.897  2.02699999999999 10.425  1.51499999999999 9.48099999999999  C 1.09899999999999 8.721  0.89100000000002 7.70899999999995  0.89100000000002 6.44500000000005  C 0.89100000000002 5.173  1.09899999999999 4.16099999999994  1.51499999999999 3.40899999999999  Z M 5.60700000000003 3.91300000000001  C 5.23899999999998 3.06500000000005  4.64299999999997 2.64099999999996  3.81900000000002 2.64099999999996  C 2.98700000000002 2.64099999999996  2.39100000000002 3.06500000000005  2.03100000000001 3.91300000000001  C 1.767 4.53700000000003  1.63499999999999 5.38099999999997  1.63499999999999 6.44500000000005  C 1.63499999999999 7.49300000000005  1.767 8.33699999999999  2.03100000000001 8.97699999999998  C 2.39100000000002 9.82500000000005  2.98700000000002 10.249  3.81900000000002 10.249  C 4.63499999999999 10.249  5.23099999999999 9.82500000000005  5.60700000000003 8.97699999999998  C 5.87900000000002 8.32100000000003  6.01499999999999 7.47699999999998  6.01499999999999 6.44500000000005  C 6.01499999999999 5.39700000000005  5.87900000000002 4.553  5.60700000000003 3.91300000000001  Z M 7.93000000000001 11.929  L 12.238 0.88900000000001  L 12.898 0.88900000000001  L 8.58999999999997 11.929  L 7.93000000000001 11.929  Z M 17.026 2.16099999999994  L 17.614 2.16099999999994  L 17.614 10.729  L 16.882 10.729  L 16.882 3.07299999999998  C 16.33 3.673  15.646 4.09299999999996  14.83 4.33299999999997  L 14.83 3.58900000000006  C 15.238 3.46900000000005  15.634 3.28899999999999  16.018 3.04899999999998  C 16.394 2.80100000000004  16.73 2.505  17.026 2.16099999999994  Z M 21.905 3.40899999999999  C 22.409 2.46500000000003  23.177 1.99300000000005  24.209 1.99300000000005  C 25.241 1.99300000000005  26.009 2.46500000000003  26.513 3.40899999999999  C 26.929 4.17700000000002  27.137 5.18899999999996  27.137 6.44500000000005  C 27.137 7.68499999999995  26.929 8.697  26.513 9.48099999999999  C 26.001 10.425  25.233 10.897  24.209 10.897  C 23.185 10.897  22.417 10.425  21.905 9.48099999999999  C 21.489 8.721  21.281 7.70899999999995  21.281 6.44500000000005  C 21.281 5.173  21.489 4.16099999999994  21.905 3.40899999999999  Z M 25.997 3.91300000000001  C 25.629 3.06500000000005  25.033 2.64099999999996  24.209 2.64099999999996  C 23.377 2.64099999999996  22.781 3.06500000000005  22.421 3.91300000000001  C 22.157 4.53700000000003  22.025 5.38099999999997  22.025 6.44500000000005  C 22.025 7.49300000000005  22.157 8.33699999999999  22.421 8.97699999999998  C 22.781 9.82500000000005  23.377 10.249  24.209 10.249  C 25.025 10.249  25.621 9.82500000000005  25.997 8.97699999999998  C 26.269 8.32100000000003  26.405 7.47699999999998  26.405 6.44500000000005  C 26.405 5.39700000000005  26.269 4.553  25.997 3.91300000000001  Z M 29.101 3.40899999999999  C 29.605 2.46500000000003  30.373 1.99300000000005  31.405 1.99300000000005  C 32.437 1.99300000000005  33.205 2.46500000000003  33.709 3.40899999999999  C 34.125 4.17700000000002  34.333 5.18899999999996  34.333 6.44500000000005  C 34.333 7.68499999999995  34.125 8.697  33.709 9.48099999999999  C 33.197 10.425  32.429 10.897  31.405 10.897  C 30.381 10.897  29.613 10.425  29.101 9.48099999999999  C 28.685 8.721  28.477 7.70899999999995  28.477 6.44500000000005  C 28.477 5.173  28.685 4.16099999999994  29.101 3.40899999999999  Z M 33.193 3.91300000000001  C 32.825 3.06500000000005  32.229 2.64099999999996  31.405 2.64099999999996  C 30.573 2.64099999999996  29.977 3.06500000000005  29.617 3.91300000000001  C 29.353 4.53700000000003  29.221 5.38099999999997  29.221 6.44500000000005  C 29.221 7.49300000000005  29.353 8.33699999999999  29.617 8.97699999999998  C 29.977 9.82500000000005  30.573 10.249  31.405 10.249  C 32.221 10.249  32.817 9.82500000000005  33.193 8.97699999999998  C 33.465 8.32100000000003  33.601 7.47699999999998  33.601 6.44500000000005  C 33.601 5.39700000000005  33.465 4.553  33.193 3.91300000000001  Z " fill-rule="nonzero" fill="#bfc1c5" stroke="none" transform="matrix(1 0 0 1 1076 483 )" />
  </g>
</svg>