<?xml version="1.0" encoding="utf-8"?>
<svg version="1.1" xmlns:xlink="http://www.w3.org/1999/xlink" width="14px" height="14px" xmlns="http://www.w3.org/2000/svg">
  <g transform="matrix(1 0 0 1 -273 420 )">
    <path d="M 280 -420  C 283.92 -420  287 -416.92  287 -413  C 287 -409.08  283.92 -406  280 -406  C 276.08 -406  273 -409.08  273 -413  C 273 -416.92  276.08 -420  280 -420  Z " fill-rule="nonzero" fill="#ffffff" stroke="none" />
    <path d="M 280 -419.5  C 283.64 -419.5  286.5 -416.64  286.5 -413  C 286.5 -409.36  283.64 -406.5  280 -406.5  C 276.36 -406.5  273.5 -409.36  273.5 -413  C 273.5 -416.64  276.36 -419.5  280 -419.5  Z " stroke-width="1" stroke="#d7d7d7" fill="none" />
  </g>
</svg>