<?xml version="1.0" encoding="utf-8"?>
<svg version="1.1" xmlns:xlink="http://www.w3.org/1999/xlink" width="200px" height="32px" xmlns="http://www.w3.org/2000/svg">
  <g transform="matrix(1 0 0 1 -2123 378 )">
    <path d="M 2124 -374  A 3 3 0 0 1 2127 -377 L 2319 -377  A 3 3 0 0 1 2322 -374 L 2322 -350  A 3 3 0 0 1 2319 -347 L 2127 -347  A 3 3 0 0 1 2124 -350 L 2124 -374  Z " fill-rule="nonzero" fill="#ffffff" stroke="none" fill-opacity="0" />
    <path d="M 2123.5 -374  A 3.5 3.5 0 0 1 2127 -377.5 L 2319 -377.5  A 3.5 3.5 0 0 1 2322.5 -374 L 2322.5 -350  A 3.5 3.5 0 0 1 2319 -346.5 L 2127 -346.5  A 3.5 3.5 0 0 1 2123.5 -350 L 2123.5 -374  Z " stroke-width="1" stroke="#000000" fill="none" stroke-opacity="0.149019607843137" />
  </g>
</svg>