<?xml version="1.0" encoding="utf-8"?>
<svg version="1.1" xmlns:xlink="http://www.w3.org/1999/xlink" width="32px" height="32px" xmlns="http://www.w3.org/2000/svg">
  <g transform="matrix(1 0 0 1 -1091 815 )">
    <path d="M 1107 -814.5  C 1115.68 -814.5  1122.5 -807.68  1122.5 -799  C 1122.5 -790.32  1115.68 -783.5  1107 -783.5  C 1098.32 -783.5  1091.5 -790.32  1091.5 -799  C 1091.5 -807.68  1098.32 -814.5  1107 -814.5  Z " fill-rule="nonzero" fill="#ffffff" stroke="none" fill-opacity="0" />
    <path d="M 1107 -814.5  C 1115.68 -814.5  1122.5 -807.68  1122.5 -799  C 1122.5 -790.32  1115.68 -783.5  1107 -783.5  C 1098.32 -783.5  1091.5 -790.32  1091.5 -799  C 1091.5 -807.68  1098.32 -814.5  1107 -814.5  Z " stroke-width="1" stroke="#000819" fill="none" stroke-opacity="0.149019607843137" />
  </g>
</svg>