<?xml version="1.0" encoding="utf-8"?>
<svg version="1.1" xmlns:xlink="http://www.w3.org/1999/xlink" width="240px" height="652px" xmlns="http://www.w3.org/2000/svg">
  <defs>
    <mask fill="white" id="clip19">
      <path d="M 0 652  L 0 32.6  C 0 14.5885000000002  0.474400529801325 0  1.05960264900662 0  L 238.940397350993 0  C 239.52582781457 0  240 14.5885000000002  240 32.6  L 240 652  L 0 652  Z " fill-rule="evenodd" />
    </mask>
  </defs>
  <g transform="matrix(1 0 0 1 -257 -176 )">
    <path d="M 0 652  L 0 32.6  C 0 14.5885000000002  0.474400529801325 0  1.05960264900662 0  L 238.940397350993 0  C 239.52582781457 0  240 14.5885000000002  240 32.6  L 240 652  L 0 652  Z " fill-rule="nonzero" fill="#f2f2f2" stroke="none" transform="matrix(1 0 0 1 257 176 )" />
    <path d="M 0 652  L 0 32.6  C 0 14.5885000000002  0.474400529801325 0  1.05960264900662 0  L 238.940397350993 0  C 239.52582781457 0  240 14.5885000000002  240 32.6  L 240 652  L 0 652  Z " stroke-width="2" stroke="#f2f2f2" fill="none" transform="matrix(1 0 0 1 257 176 )" mask="url(#clip19)" />
  </g>
</svg>