<?xml version="1.0" encoding="utf-8"?>
<svg version="1.1" xmlns:xlink="http://www.w3.org/1999/xlink" width="14px" height="14px" xmlns="http://www.w3.org/2000/svg">
  <g transform="matrix(1 0 0 1 763 -432 )">
    <path d="M -762 434  A 1 1 0 0 1 -761 433 L -751 433  A 1 1 0 0 1 -750 434 L -750 444  A 1 1 0 0 1 -751 445 L -761 445  A 1 1 0 0 1 -762 444 L -762 434  Z " fill-rule="nonzero" fill="#ffffff" stroke="none" />
    <path d="M -762.5 434  A 1.5 1.5 0 0 1 -761 432.5 L -751 432.5  A 1.5 1.5 0 0 1 -749.5 434 L -749.5 444  A 1.5 1.5 0 0 1 -751 445.5 L -761 445.5  A 1.5 1.5 0 0 1 -762.5 444 L -762.5 434  Z " stroke-width="1" stroke="#000000" fill="none" stroke-opacity="0.247058823529412" />
  </g>
</svg>