<?xml version="1.0" encoding="utf-8"?>
<svg version="1.1" xmlns:xlink="http://www.w3.org/1999/xlink" width="200px" height="64px" xmlns="http://www.w3.org/2000/svg">
  <defs>
    <mask fill="white" id="clip7">
      <path d="M 0 64  L 0 3.2  C 0 1.43200000000002  0.395333774834437 0  0.883002207505519 0  L 199.116997792494 0  C 199.604856512141 0  200 1.43200000000002  200 3.2  L 200 64  L 0 64  Z " fill-rule="evenodd" />
    </mask>
  </defs>
  <g transform="matrix(1 0 0 1 -257 637 )">
    <path d="M 0 64  L 0 3.2  C 0 1.43200000000002  0.395333774834437 0  0.883002207505519 0  L 199.116997792494 0  C 199.604856512141 0  200 1.43200000000002  200 3.2  L 200 64  L 0 64  Z " fill-rule="nonzero" fill="#ffffff" stroke="none" transform="matrix(1 0 0 1 257 -637 )" />
    <path d="M 0 64  L 0 3.2  C 0 1.43200000000002  0.395333774834437 0  0.883002207505519 0  L 199.116997792494 0  C 199.604856512141 0  200 1.43200000000002  200 3.2  L 200 64  L 0 64  Z " stroke-width="2" stroke="#d7d7d7" fill="none" transform="matrix(1 0 0 1 257 -637 )" mask="url(#clip7)" />
  </g>
</svg>