<?xml version="1.0" encoding="utf-8"?>
<svg version="1.1" xmlns:xlink="http://www.w3.org/1999/xlink" width="64px" height="64px" xmlns="http://www.w3.org/2000/svg">
  <g transform="matrix(1 0 0 1 -529 573 )">
    <path d="M 561 -573  C 578.92 -573  593 -558.92  593 -541  C 593 -523.08  578.92 -509  561 -509  C 543.08 -509  529 -523.08  529 -541  C 529 -558.92  543.08 -573  561 -573  Z " fill-rule="nonzero" fill="#ffffff" stroke="none" />
    <path d="M 561 -572.5  C 578.64 -572.5  592.5 -558.64  592.5 -541  C 592.5 -523.36  578.64 -509.5  561 -509.5  C 543.36 -509.5  529.5 -523.36  529.5 -541  C 529.5 -558.64  543.36 -572.5  561 -572.5  Z " stroke-width="1" stroke="#797979" fill="none" />
  </g>
</svg>