<?xml version="1.0" encoding="utf-8"?>
<svg version="1.1" xmlns:xlink="http://www.w3.org/1999/xlink" width="200px" height="40px" xmlns="http://www.w3.org/2000/svg">
  <defs>
    <mask fill="white" id="clip10">
      <path d="M 0 40  L 0 2  C 0 0.89500000000001  0.395333774834437 0  0.883002207505519 0  L 199.116997792494 0  C 199.604856512141 0  200 0.89500000000001  200 2  L 200 40  L 0 40  Z " fill-rule="evenodd" />
    </mask>
  </defs>
  <g transform="matrix(1 0 0 1 -257 -617 )">
    <path d="M 0 40  L 0 2  C 0 0.89500000000001  0.395333774834437 0  0.883002207505519 0  L 199.116997792494 0  C 199.604856512141 0  200 0.89500000000001  200 2  L 200 40  L 0 40  Z " fill-rule="nonzero" fill="#f2f2f2" stroke="none" transform="matrix(1 0 0 1 257 617 )" />
    <path d="M 0 40  L 0 2  C 0 0.89500000000001  0.395333774834437 0  0.883002207505519 0  L 199.116997792494 0  C 199.604856512141 0  200 0.89500000000001  200 2  L 200 40  L 0 40  Z " stroke-width="2" stroke="#d7d7d7" fill="none" transform="matrix(1 0 0 1 257 617 )" mask="url(#clip10)" />
  </g>
</svg>