<?xml version="1.0" encoding="utf-8"?>
<svg version="1.1" xmlns:xlink="http://www.w3.org/1999/xlink" width="737px" height="40px" xmlns="http://www.w3.org/2000/svg">
  <defs>
    <mask fill="white" id="clip11">
      <path d="M 0 40  L 0 2  C 0 0.89500000000001  1.4568049602649 0  3.25386313465784 0  L 733.746136865342 0  C 735.543896247241 0  737 0.89500000000001  737 2  L 737 40  L 0 40  Z " fill-rule="evenodd" />
    </mask>
  </defs>
  <g transform="matrix(1 0 0 1 -665 -617 )">
    <path d="M 0 40  L 0 2  C 0 0.89500000000001  1.4568049602649 0  3.25386313465784 0  L 733.746136865342 0  C 735.543896247241 0  737 0.89500000000001  737 2  L 737 40  L 0 40  Z " fill-rule="nonzero" fill="#f2f2f2" stroke="none" transform="matrix(1 0 0 1 665 617 )" />
    <path d="M 0 40  L 0 2  C 0 0.89500000000001  1.4568049602649 0  3.25386313465784 0  L 733.746136865342 0  C 735.543896247241 0  737 0.89500000000001  737 2  L 737 40  L 0 40  Z " stroke-width="2" stroke="#d7d7d7" fill="none" transform="matrix(1 0 0 1 665 617 )" mask="url(#clip11)" />
  </g>
</svg>