<?xml version="1.0" encoding="utf-8"?>
<svg version="1.1" xmlns:xlink="http://www.w3.org/1999/xlink" width="14px" height="14px" xmlns="http://www.w3.org/2000/svg">
  <g transform="matrix(1 0 0 1 -1220 -1041 )">
    <path d="M 1227 1041.5  C 1230.64 1041.5  1233.5 1044.36  1233.5 1048  C 1233.5 1051.64  1230.64 1054.5  1227 1054.5  C 1223.36 1054.5  1220.5 1051.64  1220.5 1048  C 1220.5 1044.36  1223.36 1041.5  1227 1041.5  Z " fill-rule="nonzero" fill="#ffffff" stroke="none" />
    <path d="M 1227 1041.5  C 1230.64 1041.5  1233.5 1044.36  1233.5 1048  C 1233.5 1051.64  1230.64 1054.5  1227 1054.5  C 1223.36 1054.5  1220.5 1051.64  1220.5 1048  C 1220.5 1044.36  1223.36 1041.5  1227 1041.5  Z " stroke-width="1" stroke="#000819" fill="none" stroke-opacity="0.647058823529412" />
  </g>
</svg>