<?xml version="1.0" encoding="utf-8"?>
<svg version="1.1" xmlns:xlink="http://www.w3.org/1999/xlink" width="13px" height="13px" xmlns="http://www.w3.org/2000/svg">
  <g transform="matrix(1 0 0 1 -1306 -1042 )">
    <path d="M 1312.5 1042.2  C 1316.028 1042.2  1318.8 1044.972  1318.8 1048.5  C 1318.8 1052.028  1316.028 1054.8  1312.5 1054.8  C 1308.972 1054.8  1306.2 1052.028  1306.2 1048.5  C 1306.2 1044.972  1308.972 1042.2  1312.5 1042.2  Z " fill-rule="nonzero" fill="#ffffff" stroke="none" fill-opacity="0" />
    <path d="M 1312.5 1042.6  C 1315.804 1042.6  1318.4 1045.196  1318.4 1048.5  C 1318.4 1051.804  1315.804 1054.4  1312.5 1054.4  C 1309.196 1054.4  1306.6 1051.804  1306.6 1048.5  C 1306.6 1045.196  1309.196 1042.6  1312.5 1042.6  Z " stroke-width="1.2" stroke="#0f67fb" fill="none" />
  </g>
</svg>