<?xml version="1.0" encoding="utf-8"?>
<svg version="1.1" xmlns:xlink="http://www.w3.org/1999/xlink" width="14px" height="14px" xmlns="http://www.w3.org/2000/svg">
  <g transform="matrix(1 0 0 1 -681 -1748 )">
    <path d="M 14 7  C 14 3.13438  10.8656 0  7 0  C 3.13438 0  0 3.13438  0 7  C 0 10.8656  3.13438 14  7 14  C 10.8656 14  14 10.8656  14 7  Z M 9.9219 4.51562  C 10.0234 4.51562  10.0828 4.63125  10.0234 4.71406  L 6.73281 9.2766  C 6.53437 9.5531  6.12344 9.5531  5.925 9.2766  L 3.97656 6.57656  C 3.91719 6.49375  3.97656 6.37813  4.07812 6.37813  L 4.81094 6.37813  C 4.97031 6.37813  5.12187 6.45469  5.21562 6.58594  L 6.32812 8.12969  L 8.78438 4.72344  C 8.87813 4.59375  9.0281 4.51562  9.1891 4.51562  L 9.9219 4.51562  Z " fill-rule="nonzero" fill="#12cc7e" stroke="none" transform="matrix(1 0 0 1 681 1748 )" />
  </g>
</svg>