<?xml version="1.0" encoding="utf-8"?>
<svg version="1.1" xmlns:xlink="http://www.w3.org/1999/xlink" width="366px" height="32px" xmlns="http://www.w3.org/2000/svg">
  <g transform="matrix(1 0 0 1 -1049 -267 )">
    <path d="M 1050 271  A 3 3 0 0 1 1053 268 L 1411 268  A 3 3 0 0 1 1414 271 L 1414 295  A 3 3 0 0 1 1411 298 L 1053 298  A 3 3 0 0 1 1050 295 L 1050 271  Z " fill-rule="nonzero" fill="#f2f2f2" stroke="none" />
    <path d="M 1049.5 271  A 3.5 3.5 0 0 1 1053 267.5 L 1411 267.5  A 3.5 3.5 0 0 1 1414.5 271 L 1414.5 295  A 3.5 3.5 0 0 1 1411 298.5 L 1053 298.5  A 3.5 3.5 0 0 1 1049.5 295 L 1049.5 271  Z " stroke-width="1" stroke="#000000" fill="none" stroke-opacity="0.149019607843137" />
  </g>
</svg>