<?xml version="1.0" encoding="utf-8"?>
<svg version="1.1" xmlns:xlink="http://www.w3.org/1999/xlink" width="93px" height="32px" xmlns="http://www.w3.org/2000/svg">
  <g transform="matrix(1 0 0 1 -748 -737 )">
    <path d="M 749 741  A 3 3 0 0 1 752 738 L 837 738  A 3 3 0 0 1 840 741 L 840 765  A 3 3 0 0 1 837 768 L 752 768  A 3 3 0 0 1 749 765 L 749 741  Z " fill-rule="nonzero" fill="#ffffff" stroke="none" fill-opacity="0" />
    <path d="M 748.5 741  A 3.5 3.5 0 0 1 752 737.5 L 837 737.5  A 3.5 3.5 0 0 1 840.5 741 L 840.5 765  A 3.5 3.5 0 0 1 837 768.5 L 752 768.5  A 3.5 3.5 0 0 1 748.5 765 L 748.5 741  Z " stroke-width="1" stroke="#000000" fill="none" stroke-opacity="0.149019607843137" />
  </g>
</svg>