<?xml version="1.0" encoding="utf-8"?>
<svg version="1.1" xmlns:xlink="http://www.w3.org/1999/xlink" width="400px" height="80px" xmlns="http://www.w3.org/2000/svg">
  <g transform="matrix(1 0 0 1 -268 -570 )">
    <path d="M 269 574  A 3 3 0 0 1 272 571 L 664 571  A 3 3 0 0 1 667 574 L 667 646  A 3 3 0 0 1 664 649 L 272 649  A 3 3 0 0 1 269 646 L 269 574  Z " fill-rule="nonzero" fill="#ffffff" stroke="none" fill-opacity="0" />
    <path d="M 268.5 574  A 3.5 3.5 0 0 1 272 570.5 L 664 570.5  A 3.5 3.5 0 0 1 667.5 574 L 667.5 646  A 3.5 3.5 0 0 1 664 649.5 L 272 649.5  A 3.5 3.5 0 0 1 268.5 646 L 268.5 574  Z " stroke-width="1" stroke="#000000" fill="none" stroke-opacity="0.149019607843137" />
  </g>
</svg>