<?xml version="1.0" encoding="utf-8"?>
<svg version="1.1" xmlns:xlink="http://www.w3.org/1999/xlink" width="252px" height="40px" xmlns="http://www.w3.org/2000/svg">
  <g transform="matrix(1 0 0 1 -416 -983 )">
    <path d="M 417 987  A 3 3 0 0 1 420 984 L 664 984  A 3 3 0 0 1 667 987 L 667 1019  A 3 3 0 0 1 664 1022 L 420 1022  A 3 3 0 0 1 417 1019 L 417 987  Z " fill-rule="nonzero" fill="#ffffff" stroke="none" />
    <path d="M 416.5 987  A 3.5 3.5 0 0 1 420 983.5 L 664 983.5  A 3.5 3.5 0 0 1 667.5 987 L 667.5 1019  A 3.5 3.5 0 0 1 664 1022.5 L 420 1022.5  A 3.5 3.5 0 0 1 416.5 1019 L 416.5 987  Z " stroke-width="1" stroke="#000000" fill="none" stroke-opacity="0.149019607843137" />
  </g>
</svg>