<?xml version="1.0" encoding="utf-8"?>
<svg version="1.1" xmlns:xlink="http://www.w3.org/1999/xlink" width="140px" height="40px" xmlns="http://www.w3.org/2000/svg">
  <g transform="matrix(1 0 0 1 -268 -983 )">
    <path d="M 269 987  A 3 3 0 0 1 272 984 L 404 984  A 3 3 0 0 1 407 987 L 407 1019  A 3 3 0 0 1 404 1022 L 272 1022  A 3 3 0 0 1 269 1019 L 269 987  Z " fill-rule="nonzero" fill="#ffffff" stroke="none" fill-opacity="0" />
    <path d="M 268.5 987  A 3.5 3.5 0 0 1 272 983.5 L 404 983.5  A 3.5 3.5 0 0 1 407.5 987 L 407.5 1019  A 3.5 3.5 0 0 1 404 1022.5 L 272 1022.5  A 3.5 3.5 0 0 1 268.5 1019 L 268.5 987  Z " stroke-width="1" stroke="#000000" fill="none" stroke-opacity="0.149019607843137" />
  </g>
</svg>