<?xml version="1.0" encoding="utf-8"?>
<svg version="1.1" xmlns:xlink="http://www.w3.org/1999/xlink" width="252px" height="40px" xmlns="http://www.w3.org/2000/svg">
  <g transform="matrix(1 0 0 1 -416 -1278 )">
    <path d="M 417 1282  A 3 3 0 0 1 420 1279 L 664 1279  A 3 3 0 0 1 667 1282 L 667 1314  A 3 3 0 0 1 664 1317 L 420 1317  A 3 3 0 0 1 417 1314 L 417 1282  Z " fill-rule="nonzero" fill="#ffffff" stroke="none" />
    <path d="M 416.5 1282  A 3.5 3.5 0 0 1 420 1278.5 L 664 1278.5  A 3.5 3.5 0 0 1 667.5 1282 L 667.5 1314  A 3.5 3.5 0 0 1 664 1317.5 L 420 1317.5  A 3.5 3.5 0 0 1 416.5 1314 L 416.5 1282  Z " stroke-width="1" stroke="#000000" fill="none" stroke-opacity="0.149019607843137" />
  </g>
</svg>