<?xml version="1.0" encoding="utf-8"?>
<svg version="1.1" xmlns:xlink="http://www.w3.org/1999/xlink" width="140px" height="40px" xmlns="http://www.w3.org/2000/svg">
  <g transform="matrix(1 0 0 1 -268 -1278 )">
    <path d="M 269 1282  A 3 3 0 0 1 272 1279 L 404 1279  A 3 3 0 0 1 407 1282 L 407 1314  A 3 3 0 0 1 404 1317 L 272 1317  A 3 3 0 0 1 269 1314 L 269 1282  Z " fill-rule="nonzero" fill="#ffffff" stroke="none" fill-opacity="0" />
    <path d="M 268.5 1282  A 3.5 3.5 0 0 1 272 1278.5 L 404 1278.5  A 3.5 3.5 0 0 1 407.5 1282 L 407.5 1314  A 3.5 3.5 0 0 1 404 1317.5 L 272 1317.5  A 3.5 3.5 0 0 1 268.5 1314 L 268.5 1282  Z " stroke-width="1" stroke="#000000" fill="none" stroke-opacity="0.149019607843137" />
  </g>
</svg>