<?xml version="1.0" encoding="utf-8"?>
<svg version="1.1" xmlns:xlink="http://www.w3.org/1999/xlink" width="27px" height="14px" xmlns="http://www.w3.org/2000/svg">
  <g transform="matrix(1 0 0 1 -452 -336 )">
    <path d="M 0.77000000000001 9.186  L 0.77000000000001 8.43  L 9.36600000000001 8.43  L 9.36600000000001 7.436  L 10.122 7.436  L 10.122 8.43  L 13.216 8.43  L 13.216 9.186  L 10.122 9.186  L 10.122 12.336  C 10.122 13.0453  9.739 13.4  8.97399999999999 13.4  L 7.154 13.4  L 6.98599999999999 12.672  C 7.57400000000001 12.7  8.148 12.714  8.708 12.714  C 9.14699999999999 12.714  9.36600000000001 12.532  9.36600000000001 12.168  L 9.36600000000001 9.186  L 0.77000000000001 9.186  Z M 2.28200000000001 1.192  L 11.074 1.192  L 11.074 4.356  L 3.03800000000001 4.356  L 3.03800000000001 5.574  C 3.03800000000001 5.9567  3.23400000000001 6.1573  3.626 6.176  L 11.242 6.176  C 11.559 6.176  11.783 6.0687  11.914 5.854  C 12.017 5.7047  12.096 5.3127  12.152 4.678  L 12.866 4.916  C 12.801 5.5227  12.707 5.9753  12.586 6.274  C 12.371 6.6753  11.989 6.876  11.438 6.876  L 3.388 6.876  C 2.65100000000001 6.876  2.28200000000001 6.5213  2.28200000000001 5.812  L 2.28200000000001 1.192  Z M 3.03800000000001 1.892  L 3.03800000000001 3.656  L 10.318 3.656  L 10.318 1.892  L 3.03800000000001 1.892  Z M 3.22 10.306  L 3.76599999999999 9.774  C 4.74600000000001 10.5487  5.54900000000001 11.3047  6.17400000000001 12.042  L 5.614 12.602  C 5.017 11.8647  4.21899999999999 11.0993  3.22 10.306  Z M 21.392 5.56  L 24.948 5.56  L 24.948 1.64  L 25.704 1.64  L 25.704 6.288  L 21.392 6.288  L 21.392 11.664  L 25.606 11.664  L 25.606 7.758  L 26.348 7.758  L 26.348 13.274  L 25.606 13.274  L 25.606 12.406  L 16.394 12.406  L 16.394 13.274  L 15.652 13.274  L 15.652 7.758  L 16.394 7.758  L 16.394 11.664  L 20.608 11.664  L 20.608 6.288  L 16.296 6.288  L 16.296 1.64  L 17.052 1.64  L 17.052 5.56  L 20.608 5.56  L 20.608 0.576000000000001  L 21.392 0.576000000000001  L 21.392 5.56  Z " fill-rule="nonzero" fill="#ffffff" stroke="none" transform="matrix(1 0 0 1 452 336 )" />
  </g>
</svg>