<?xml version="1.0" encoding="utf-8"?>
<svg version="1.1" xmlns:xlink="http://www.w3.org/1999/xlink" width="104px" height="32px" xmlns="http://www.w3.org/2000/svg">
  <g transform="matrix(1 0 0 1 -502 -327 )">
    <path d="M 503 332.5  A 4.5 4.5 0 0 1 507.5 328 L 600.5 328  A 4.5 4.5 0 0 1 605 332.5 L 605 353.5  A 4.5 4.5 0 0 1 600.5 358 L 507.5 358  A 4.5 4.5 0 0 1 503 353.5 L 503 332.5  Z " fill-rule="nonzero" fill="#ffffff" stroke="none" fill-opacity="0" />
    <path d="M 502.5 332.5  A 5 5 0 0 1 507.5 327.5 L 600.5 327.5  A 5 5 0 0 1 605.5 332.5 L 605.5 353.5  A 5 5 0 0 1 600.5 358.5 L 507.5 358.5  A 5 5 0 0 1 502.5 353.5 L 502.5 332.5  Z " stroke-width="1" stroke="#000819" fill="none" stroke-opacity="0.149019607843137" />
  </g>
</svg>