<?xml version="1.0" encoding="utf-8"?>
<svg version="1.1" xmlns:xlink="http://www.w3.org/1999/xlink" width="6px" height="6px" xmlns="http://www.w3.org/2000/svg">
  <g transform="matrix(1 0 0 1 -519 -340 )">
    <path d="M 522 340.5  C 523.4 340.5  524.5 341.6  524.5 343  C 524.5 344.4  523.4 345.5  522 345.5  C 520.6 345.5  519.5 344.4  519.5 343  C 519.5 341.6  520.6 340.5  522 340.5  Z " fill-rule="nonzero" fill="#ffffff" stroke="none" />
    <path d="M 522 340.5  C 523.4 340.5  524.5 341.6  524.5 343  C 524.5 344.4  523.4 345.5  522 345.5  C 520.6 345.5  519.5 344.4  519.5 343  C 519.5 341.6  520.6 340.5  522 340.5  Z " stroke-width="1" stroke="#000819" fill="none" stroke-opacity="0.447058823529412" />
  </g>
</svg>