<?xml version="1.0" encoding="utf-8"?>
<svg version="1.1" xmlns:xlink="http://www.w3.org/1999/xlink" width="27px" height="14px" xmlns="http://www.w3.org/2000/svg">
  <g transform="matrix(1 0 0 1 -294 -336 )">
    <path d="M 12.544 0.757999999999999  L 12.908 1.444  C 11.6387 1.9853  10.2433 2.298  8.722 2.382  L 8.722 5.126  L 13.496 5.126  L 13.496 5.84  L 11.858 5.84  L 11.858 13.428  L 11.116 13.428  L 11.116 5.84  L 8.722 5.84  L 8.722 7.688  C 8.6567 10.0587  8.1293 11.9487  7.14 13.358  L 6.594 12.784  C 7.462 11.5613  7.924 9.8627  7.98 7.688  L 7.98 1.752  C 9.6413 1.7147  11.1627 1.3833  12.544 0.757999999999999  Z M 0.881999999999998 2.606  L 0.881999999999998 1.878  L 3.738 1.878  C 3.458 1.3367  3.1827 0.893330000000001  2.912 0.548  L 3.682 0.407999999999999  C 3.934 0.781330000000001  4.1953 1.2713  4.466 1.878  L 7.126 1.878  L 7.126 2.606  L 0.881999999999998 2.606  Z M 0.756 5.77  L 0.756 5.056  L 2.45 5.056  C 2.2073 4.4027  1.932 3.8333  1.624 3.348  L 2.296 3.082  C 2.604 3.642  2.884 4.3  3.136 5.056  L 4.83 5.056  C 5.1567 4.4213  5.4367 3.7493  5.67 3.04  L 6.356 3.278  C 6.1133 3.9407  5.8333 4.5333  5.516 5.056  L 7.224 5.056  L 7.224 5.77  L 4.438 5.77  L 4.438 7.562  L 6.972 7.562  L 6.972 8.262  L 4.438 8.262  L 4.438 12.308  C 4.438 13.0547  4.074 13.428  3.346 13.428  L 2.576 13.428  L 2.408 12.714  C 2.7253 12.7513  2.954 12.77  3.094 12.77  C 3.486 12.77  3.682 12.5553  3.682 12.126  L 3.682 8.262  L 0.951999999999998 8.262  L 0.951999999999998 7.562  L 3.682 7.562  L 3.682 5.77  L 0.756 5.77  Z M 2.058 9.13  L 2.758 9.27  C 2.3847 10.6793  1.8433 11.916  1.134 12.98  L 0.503999999999998 12.574  C 1.204 11.566  1.722 10.418  2.058 9.13  Z M 5.152 9.186  L 5.796 9.018  C 6.2627 9.9607  6.622 10.81  6.874 11.566  L 6.23 11.818  C 5.9407 10.9407  5.5813 10.0633  5.152 9.186  Z M 14.728 5.14  L 14.728 4.412  L 16.338 4.412  L 16.338 0.66  L 17.08 0.66  L 17.08 4.412  L 18.578 4.412  L 18.578 5.14  L 17.08 5.14  L 17.08 10.11  C 17.7053 9.858  18.284 9.592  18.816 9.312  L 18.816 10.068  C 17.556 10.7027  16.2353 11.2113  14.854 11.594  L 14.658 10.866  C 15.1807 10.7353  15.7407 10.572  16.338 10.376  L 16.338 5.14  L 14.728 5.14  Z M 20.58 0.757999999999999  L 21.336 0.618  C 21.5787 1.1967  21.7933 1.8033  21.98 2.438  L 24.15 2.438  C 24.4207 1.8033  24.612 1.1593  24.724 0.506  L 25.466 0.603999999999999  C 25.326 1.2667  25.13 1.878  24.878 2.438  L 26.824 2.438  L 26.824 6.974  L 19.292 6.974  L 19.292 2.438  L 21.266 2.438  C 21.042 1.794  20.8133 1.234  20.58 0.757999999999999  Z M 23.338 6.344  L 26.152 6.344  L 26.152 3.11  L 23.338 3.11  L 23.338 6.344  Z M 19.964 6.344  L 22.722 6.344  L 22.722 3.11  L 19.964 3.11  L 19.964 6.344  Z M 20.762 3.936  L 21.28 3.768  C 21.5413 4.3187  21.7747 4.93  21.98 5.602  L 21.462 5.742  C 21.2473 5.07  21.014 4.468  20.762 3.936  Z M 24.752 3.698  L 25.298 3.838  C 25.0927 4.5847  24.8547 5.2333  24.584 5.784  L 24.066 5.602  C 24.3367 5.0513  24.5653 4.4167  24.752 3.698  Z M 19.852 8.052  L 26.32 8.052  L 26.32 13.372  L 25.592 13.372  L 25.592 12.728  L 20.58 12.728  L 20.58 13.372  L 19.852 13.372  L 19.852 8.052  Z M 20.58 10.698  L 20.58 12.084  L 25.592 12.084  L 25.592 10.698  L 20.58 10.698  Z M 20.58 8.682  L 20.58 10.082  L 25.592 10.082  L 25.592 8.682  L 20.58 8.682  Z " fill-rule="nonzero" fill="#ffffff" stroke="none" transform="matrix(1 0 0 1 294 336 )" />
  </g>
</svg>