<?xml version="1.0" encoding="utf-8"?>
<svg version="1.1" xmlns:xlink="http://www.w3.org/1999/xlink" width="48px" height="12px" xmlns="http://www.w3.org/2000/svg">
  <g transform="matrix(1 0 0 1 -318 -66 )">
    <path d="M 1.38 1.84  L 1.38 1.204  L 10.644 1.204  L 10.644 1.84  L 1.38 1.84  Z M 2.268 6.016  L 2.268 5.368  L 9.744 5.368  L 9.744 6.016  L 2.268 6.016  Z M 0.635999999999996 10.492  L 0.635999999999996 9.844  L 11.364 9.844  L 11.364 10.492  L 0.635999999999996 10.492  Z M 16.176 8.764  L 16.176 9.388  C 15.08 9.836  13.888 10.188  12.6 10.444  L 12.504 9.796  C 13.88 9.548  15.104 9.204  16.176 8.764  Z M 14.82 0.231999999999999  L 15.444 0.484  C 14.78 2.052  14.108 3.296  13.428 4.216  C 14.012 4.16  14.668 4.08  15.396 3.976  C 15.46 3.872  15.584 3.656  15.768 3.328  C 15.936 3.048  16.068 2.82  16.164 2.644  L 16.74 2.872  C 15.532 4.944  14.56 6.38  13.824 7.18  C 14.76 7.02  15.696 6.792  16.632 6.496  L 16.632 7.108  C 15.36 7.484  14.152 7.744  13.008 7.888  L 12.828 7.276  C 12.94 7.228  13.04 7.168  13.128 7.096  C 13.664 6.6  14.3 5.764  15.036 4.588  C 13.956 4.724  13.208 4.812  12.792 4.852  L 12.636 4.252  C 12.732 4.212  12.824 4.132  12.912 4.012  C 13.648 2.932  14.284 1.672  14.82 0.231999999999999  Z M 18.084 2.152  L 18.084 1.408  L 16.836 1.408  L 16.836 0.784000000000001  L 21.972 0.784000000000001  L 21.972 1.192  C 21.772 2.288  21.572 3.252  21.372 4.084  L 22.932 4.084  L 22.932 4.468  C 22.684 6.132  22.112 7.544  21.216 8.704  C 21.856 9.424  22.612 10.06  23.484 10.612  L 23.076 11.152  C 22.196 10.584  21.44 9.928  20.808 9.184  C 20.072 9.992  19.172 10.656  18.108 11.176  L 17.736 10.588  C 18.816 10.052  19.7 9.412  20.388 8.668  C 19.556 7.588  18.948 6.336  18.564 4.912  C 18.228 7.608  17.416 9.68  16.128 11.128  L 15.636 10.708  C 17.244 8.932  18.06 6.08  18.084 2.152  Z M 18.696 3.328  C 19 5.208  19.696 6.832  20.784 8.2  C 21.552 7.192  22.056 6.016  22.296 4.672  L 20.616 4.672  C 20.824 3.912  21.052 2.824  21.3 1.408  L 18.732 1.408  L 18.732 2.152  C 18.732 2.552  18.72 2.944  18.696 3.328  Z M 30.048 2.908  L 33.624 2.908  L 33.624 8.488  L 32.976 8.488  L 32.976 3.556  L 26.976 3.556  L 26.976 8.524  L 26.328 8.524  L 26.328 2.908  L 29.376 2.908  C 29.512 2.436  29.608 1.94  29.664 1.42  L 24.744 1.42  L 24.744 1  L 35.256 1  L 35.256 1.42  L 30.36 1.42  C 30.296 1.9  30.192 2.396  30.048 2.908  Z M 30.36 9.16  L 30.72 8.62  C 32.304 9.18  33.728 9.844  34.992 10.612  L 34.596 11.212  C 33.236 10.348  31.824 9.664  30.36 9.16  Z M 29.676 6.292  L 29.676 4.372  L 30.324 4.372  L 30.324 6.292  C 30.3 7.596  29.892 8.632  29.1 9.4  C 28.324 10.128  27.068 10.696  25.332 11.104  L 24.948 10.528  C 26.676 10.144  27.908 9.62  28.644 8.956  C 29.3 8.268  29.644 7.38  29.676 6.292  Z M 36.696 1.396  L 36.696 1  L 47.316 1  L 47.316 1.396  L 42.432 1.396  C 42.312 2.012  42.144 2.592  41.928 3.136  L 46.608 3.136  L 46.608 11.2  L 45.972 11.2  L 45.972 10.552  L 38.064 10.552  L 38.064 11.2  L 37.428 11.2  L 37.428 3.136  L 41.28 3.136  C 41.512 2.576  41.676 1.996  41.772 1.396  L 36.696 1.396  Z M 38.064 3.748  L 38.064 9.928  L 39.924 9.928  L 39.924 3.748  L 38.064 3.748  Z M 40.536 8.212  L 40.536 9.928  L 43.464 9.928  L 43.464 8.212  L 40.536 8.212  Z M 44.076 3.748  L 44.076 9.928  L 45.972 9.928  L 45.972 3.748  L 44.076 3.748  Z M 40.536 5.992  L 40.536 7.648  L 43.464 7.648  L 43.464 5.992  L 40.536 5.992  Z M 40.536 3.748  L 40.536 5.416  L 43.464 5.416  L 43.464 3.748  L 40.536 3.748  Z " fill-rule="nonzero" fill="#000819" stroke="none" transform="matrix(1 0 0 1 318 66 )" />
  </g>
</svg>