<?xml version="1.0" encoding="utf-8"?>
<svg version="1.1" xmlns:xlink="http://www.w3.org/1999/xlink" width="21px" height="21px" xmlns="http://www.w3.org/2000/svg">
  <g transform="matrix(1 0 0 1 -634 -785 )">
    <path d="M 644.5 785  C 650.38 785  655 789.62  655 795.5  C 655 801.38  650.38 806  644.5 806  C 638.62 806  634 801.38  634 795.5  C 634 789.62  638.62 785  644.5 785  Z " fill-rule="nonzero" fill="#ffffff" stroke="none" />
    <path d="M 644.5 785.5  C 650.1 785.5  654.5 789.9  654.5 795.5  C 654.5 801.1  650.1 805.5  644.5 805.5  C 638.9 805.5  634.5 801.1  634.5 795.5  C 634.5 789.9  638.9 785.5  644.5 785.5  Z " stroke-width="1" stroke="#797979" fill="none" />
  </g>
</svg>