<?xml version="1.0" encoding="utf-8"?>
<svg version="1.1" xmlns:xlink="http://www.w3.org/1999/xlink" width="12px" height="14px" xmlns="http://www.w3.org/2000/svg">
  <defs>
    <mask fill="white" id="clip7">
      <path d="M 11.7649 0.895899999999997  C 11.8016 0.504800000000003  11.4939 0.167000000000002  11.1011 0.167000000000002  C 11.1011 0.167000000000002  0.898699999999998 0.167000000000002  0.898699999999998 0.167000000000002  C 0.505899999999997 0.167000000000002  0.1982 0.504800000000003  0.234900000000003 0.895899999999997  C 0.234900000000003 0.895899999999997  1.1307 11.4515  1.1307 11.4515  C 1.1529 11.6881  1.2994 11.895  1.5151 11.9945  C 1.5151 11.9945  5.2205 13.7047  5.2205 13.7047  C 5.3978 13.7865  6.602 13.7865  6.7793 13.7047  C 6.7793 13.7047  10.4847 11.9945  10.4847 11.9945  C 10.7004 11.895  10.8469 11.6881  10.8691 11.4515  C 10.8691 11.4515  11.7649 0.895899999999997  11.7649 0.895899999999997  Z " fill-rule="evenodd" />
    </mask>
  </defs>
  <g transform="matrix(1 0 0 1 -271 -383 )">
    <path d="M 11.7649 0.895899999999997  C 11.8016 0.504800000000003  11.4939 0.167000000000002  11.1011 0.167000000000002  C 11.1011 0.167000000000002  0.898699999999998 0.167000000000002  0.898699999999998 0.167000000000002  C 0.505899999999997 0.167000000000002  0.1982 0.504800000000003  0.234900000000003 0.895899999999997  C 0.234900000000003 0.895899999999997  1.1307 11.4515  1.1307 11.4515  C 1.1529 11.6881  1.2994 11.895  1.5151 11.9945  C 1.5151 11.9945  5.2205 13.7047  5.2205 13.7047  C 5.3978 13.7865  6.602 13.7865  6.7793 13.7047  C 6.7793 13.7047  10.4847 11.9945  10.4847 11.9945  C 10.7004 11.895  10.8469 11.6881  10.8691 11.4515  C 10.8691 11.4515  11.7649 0.895899999999997  11.7649 0.895899999999997  Z " fill-rule="nonzero" fill="#ffffff" stroke="none" fill-opacity="0" transform="matrix(1 0 0 1 271 383 )" />
    <path d="M 11.7649 0.895899999999997  C 11.8016 0.504800000000003  11.4939 0.167000000000002  11.1011 0.167000000000002  C 11.1011 0.167000000000002  0.898699999999998 0.167000000000002  0.898699999999998 0.167000000000002  C 0.505899999999997 0.167000000000002  0.1982 0.504800000000003  0.234900000000003 0.895899999999997  C 0.234900000000003 0.895899999999997  1.1307 11.4515  1.1307 11.4515  C 1.1529 11.6881  1.2994 11.895  1.5151 11.9945  C 1.5151 11.9945  5.2205 13.7047  5.2205 13.7047  C 5.3978 13.7865  6.602 13.7865  6.7793 13.7047  C 6.7793 13.7047  10.4847 11.9945  10.4847 11.9945  C 10.7004 11.895  10.8469 11.6881  10.8691 11.4515  C 10.8691 11.4515  11.7649 0.895899999999997  11.7649 0.895899999999997  Z " stroke-width="2" stroke="#595e69" fill="none" transform="matrix(1 0 0 1 271 383 )" mask="url(#clip7)" />
  </g>
</svg>