<?xml version="1.0" encoding="utf-8"?>
<svg version="1.1" xmlns:xlink="http://www.w3.org/1999/xlink" width="600px" height="100px" xmlns="http://www.w3.org/2000/svg">
  <g transform="matrix(1 0 0 1 -268 -516 )">
    <path d="M 269 520  A 3 3 0 0 1 272 517 L 864 517  A 3 3 0 0 1 867 520 L 867 612  A 3 3 0 0 1 864 615 L 272 615  A 3 3 0 0 1 269 612 L 269 520  Z " fill-rule="nonzero" fill="#ffffff" stroke="none" fill-opacity="0" />
    <path d="M 268.5 520  A 3.5 3.5 0 0 1 272 516.5 L 864 516.5  A 3.5 3.5 0 0 1 867.5 520 L 867.5 612  A 3.5 3.5 0 0 1 864 615.5 L 272 615.5  A 3.5 3.5 0 0 1 268.5 612 L 268.5 520  Z " stroke-width="1" stroke="#000000" fill="none" stroke-opacity="0.149019607843137" />
  </g>
</svg>