<?xml version="1.0" encoding="utf-8"?>
<svg version="1.1" xmlns:xlink="http://www.w3.org/1999/xlink" width="366px" height="40px" xmlns="http://www.w3.org/2000/svg">
  <g transform="matrix(1 0 0 1 -529 -308 )">
    <path d="M 530 312  A 3 3 0 0 1 533 309 L 891 309  A 3 3 0 0 1 894 312 L 894 344  A 3 3 0 0 1 891 347 L 533 347  A 3 3 0 0 1 530 344 L 530 312  Z " fill-rule="nonzero" fill="#ffffff" stroke="none" fill-opacity="0" />
    <path d="M 529.5 312  A 3.5 3.5 0 0 1 533 308.5 L 891 308.5  A 3.5 3.5 0 0 1 894.5 312 L 894.5 344  A 3.5 3.5 0 0 1 891 347.5 L 533 347.5  A 3.5 3.5 0 0 1 529.5 344 L 529.5 312  Z " stroke-width="1" stroke="#000000" fill="none" stroke-opacity="0.149019607843137" />
  </g>
</svg>