<?xml version="1.0" encoding="utf-8"?>
<svg version="1.1" xmlns:xlink="http://www.w3.org/1999/xlink" width="366px" height="40px" xmlns="http://www.w3.org/2000/svg">
  <g transform="matrix(1 0 0 1 -529 -1172 )">
    <path d="M 530 1176  A 3 3 0 0 1 533 1173 L 891 1173  A 3 3 0 0 1 894 1176 L 894 1208  A 3 3 0 0 1 891 1211 L 533 1211  A 3 3 0 0 1 530 1208 L 530 1176  Z " fill-rule="nonzero" fill="#ffffff" stroke="none" fill-opacity="0" />
    <path d="M 529.5 1176  A 3.5 3.5 0 0 1 533 1172.5 L 891 1172.5  A 3.5 3.5 0 0 1 894.5 1176 L 894.5 1208  A 3.5 3.5 0 0 1 891 1211.5 L 533 1211.5  A 3.5 3.5 0 0 1 529.5 1208 L 529.5 1176  Z " stroke-width="1" stroke="#000000" fill="none" stroke-opacity="0.149019607843137" />
  </g>
</svg>