<?xml version="1.0" encoding="utf-8"?>
<svg version="1.1" xmlns:xlink="http://www.w3.org/1999/xlink" width="320px" height="40px" xmlns="http://www.w3.org/2000/svg">
  <g transform="matrix(1 0 0 1 -540 -445 )">
    <path d="M 541 449  A 3 3 0 0 1 544 446 L 856 446  A 3 3 0 0 1 859 449 L 859 481  A 3 3 0 0 1 856 484 L 544 484  A 3 3 0 0 1 541 481 L 541 449  Z " fill-rule="nonzero" fill="#ffffff" stroke="none" fill-opacity="0" />
    <path d="M 540.5 449  A 3.5 3.5 0 0 1 544 445.5 L 856 445.5  A 3.5 3.5 0 0 1 859.5 449 L 859.5 481  A 3.5 3.5 0 0 1 856 484.5 L 544 484.5  A 3.5 3.5 0 0 1 540.5 481 L 540.5 449  Z " stroke-width="1" stroke="#000000" fill="none" stroke-opacity="0.149019607843137" />
  </g>
</svg>