<?xml version="1.0" encoding="utf-8"?>
<svg version="1.1" xmlns:xlink="http://www.w3.org/1999/xlink" width="6px" height="9px" xmlns="http://www.w3.org/2000/svg">
  <g transform="matrix(1 0 0 1 -361 -337 )">
    <path d="M 3.003 8.6787  C 2.672 8.6786  2.404 8.4102  2.404 8.0791  L 2.404 2.1836  L 1.048 3.1768  C 0.781000000000006 3.3725  0.405000000000001 3.3142  0.209000000000003 3.0469  C 0.0139999999999958 2.7795  0.0720000000000027 2.4037  0.338999999999999 2.208  L 2.649 0.5166  C 2.861 0.362  3.148 0.362299999999999  3.35899999999999 0.5175  L 5.66200000000001 2.209  C 5.929 2.4051  5.98699999999999 2.7808  5.791 3.0479  C 5.59399999999999 3.3149  5.21899999999999 3.3719  4.952 3.1758  L 3.604 2.1855  L 3.604 8.0791  C 3.604 8.4103  3.33499999999999 8.6787  3.003 8.6787  Z " fill-rule="nonzero" fill="#ffffff" stroke="none" transform="matrix(1 0 0 1 361 337 )" />
  </g>
</svg>