<?xml version="1.0" encoding="utf-8"?>
<svg version="1.1" xmlns:xlink="http://www.w3.org/1999/xlink" width="28px" height="14px" xmlns="http://www.w3.org/2000/svg">
  <g transform="matrix(1 0 0 1 -376 -336 )">
    <path d="M 0.769999999999996 9.186  L 0.769999999999996 8.43  L 9.366 8.43  L 9.366 7.436  L 10.122 7.436  L 10.122 8.43  L 13.216 8.43  L 13.216 9.186  L 10.122 9.186  L 10.122 12.336  C 10.122 13.0453  9.739 13.4  8.974 13.4  L 7.154 13.4  L 6.986 12.672  C 7.574 12.7  8.148 12.714  8.708 12.714  C 9.14700000000001 12.714  9.366 12.532  9.366 12.168  L 9.366 9.186  L 0.769999999999996 9.186  Z M 2.282 1.192  L 11.074 1.192  L 11.074 4.356  L 3.038 4.356  L 3.038 5.574  C 3.038 5.9567  3.23399999999999 6.1573  3.626 6.176  L 11.242 6.176  C 11.559 6.176  11.783 6.0687  11.914 5.854  C 12.017 5.7047  12.096 5.3127  12.152 4.678  L 12.866 4.916  C 12.801 5.5227  12.707 5.9753  12.586 6.274  C 12.371 6.6753  11.989 6.876  11.438 6.876  L 3.38800000000001 6.876  C 2.651 6.876  2.282 6.5213  2.282 5.812  L 2.282 1.192  Z M 3.038 1.892  L 3.038 3.656  L 10.318 3.656  L 10.318 1.892  L 3.038 1.892  Z M 3.22 10.306  L 3.76600000000001 9.774  C 4.746 10.5487  5.54900000000001 11.3047  6.17400000000001 12.042  L 5.614 12.602  C 5.017 11.8647  4.21899999999999 11.0993  3.22 10.306  Z M 14.588 12.532  C 17.649 10.5253  19.619 7.5993  20.496 3.754  C 19.852 2.5687  19.068 1.654  18.144 1.01  L 18.774 0.59  C 20.071 1.514  21.14 3.0913  21.98 5.322  C 23.296 8.7007  25.079 11.104  27.328 12.532  L 26.866 13.134  C 24.561 11.7153  22.699 9.1673  21.28 5.49  C 21.196 5.2473  21.079 4.9627  20.93 4.636  C 20.025 8.3507  18.069 11.1973  15.064 13.176  L 14.588 12.532  Z " fill-rule="nonzero" fill="#ffffff" stroke="none" transform="matrix(1 0 0 1 376 336 )" />
  </g>
</svg>