<?xml version="1.0" encoding="utf-8"?>
<svg version="1.1" xmlns:xlink="http://www.w3.org/1999/xlink" width="16px" height="14px" xmlns="http://www.w3.org/2000/svg">
  <defs>
    <mask fill="white" id="clip8">
      <path d="M 4.166 13.1663  C 4.166 13.1663  11.833 13.1663  11.833 13.1663  C 11.833 13.1663  15.166 7.4997  15.166 7.4997  C 15.166 7.4997  11.833 0.833  11.833 0.833  C 11.833 0.833  4.166 0.833  4.166 0.833  C 4.166 0.833  0.833000000000027 7.4997  0.833000000000027 7.4997  C 0.833000000000027 7.4997  4.166 13.1663  4.166 13.1663  Z " fill-rule="evenodd" />
    </mask>
  </defs>
  <g transform="matrix(1 0 0 1 -518 -336 )">
    <path d="M 4.166 13.1663  C 4.166 13.1663  11.833 13.1663  11.833 13.1663  C 11.833 13.1663  15.166 7.4997  15.166 7.4997  C 15.166 7.4997  11.833 0.833  11.833 0.833  C 11.833 0.833  4.166 0.833  4.166 0.833  C 4.166 0.833  0.833000000000027 7.4997  0.833000000000027 7.4997  C 0.833000000000027 7.4997  4.166 13.1663  4.166 13.1663  Z " fill-rule="nonzero" fill="#ffffff" stroke="none" fill-opacity="0" transform="matrix(1 0 0 1 518 336 )" />
    <path d="M 4.166 13.1663  C 4.166 13.1663  11.833 13.1663  11.833 13.1663  C 11.833 13.1663  15.166 7.4997  15.166 7.4997  C 15.166 7.4997  11.833 0.833  11.833 0.833  C 11.833 0.833  4.166 0.833  4.166 0.833  C 4.166 0.833  0.833000000000027 7.4997  0.833000000000027 7.4997  C 0.833000000000027 7.4997  4.166 13.1663  4.166 13.1663  Z " stroke-width="2" stroke="#595e69" fill="none" stroke-opacity="0.647058823529412" transform="matrix(1 0 0 1 518 336 )" mask="url(#clip8)" />
  </g>
</svg>