<?xml version="1.0" encoding="utf-8"?>
<svg version="1.1" xmlns:xlink="http://www.w3.org/1999/xlink" width="104px" height="32px" xmlns="http://www.w3.org/2000/svg">
  <g transform="matrix(1 0 0 1 -506 -327 )">
    <path d="M 507 332.5  A 4.5 4.5 0 0 1 511.5 328 L 604.5 328  A 4.5 4.5 0 0 1 609 332.5 L 609 353.5  A 4.5 4.5 0 0 1 604.5 358 L 511.5 358  A 4.5 4.5 0 0 1 507 353.5 L 507 332.5  Z " fill-rule="nonzero" fill="#ffffff" stroke="none" fill-opacity="0" />
    <path d="M 506.5 332.5  A 5 5 0 0 1 511.5 327.5 L 604.5 327.5  A 5 5 0 0 1 609.5 332.5 L 609.5 353.5  A 5 5 0 0 1 604.5 358.5 L 511.5 358.5  A 5 5 0 0 1 506.5 353.5 L 506.5 332.5  Z " stroke-width="1" stroke="#000819" fill="none" stroke-opacity="0.149019607843137" />
  </g>
</svg>