<?xml version="1.0" encoding="utf-8"?>
<svg version="1.1" xmlns:xlink="http://www.w3.org/1999/xlink" width="6px" height="6px" xmlns="http://www.w3.org/2000/svg">
  <g transform="matrix(1 0 0 1 -523 -340 )">
    <path d="M 526 340.5  C 527.4 340.5  528.5 341.6  528.5 343  C 528.5 344.4  527.4 345.5  526 345.5  C 524.6 345.5  523.5 344.4  523.5 343  C 523.5 341.6  524.6 340.5  526 340.5  Z " fill-rule="nonzero" fill="#ffffff" stroke="none" />
    <path d="M 526 340.5  C 527.4 340.5  528.5 341.6  528.5 343  C 528.5 344.4  527.4 345.5  526 345.5  C 524.6 345.5  523.5 344.4  523.5 343  C 523.5 341.6  524.6 340.5  526 340.5  Z " stroke-width="1" stroke="#000819" fill="none" stroke-opacity="0.447058823529412" />
  </g>
</svg>