<?xml version="1.0" encoding="utf-8"?>
<svg version="1.1" xmlns:xlink="http://www.w3.org/1999/xlink" width="140px" height="32px" xmlns="http://www.w3.org/2000/svg">
  <defs>
    <mask fill="white" id="clip16">
      <path d="M 0 3.5  C 0 1.56700000000001  1.37112499999999 0  3.0625 0  C 3.0625 0  136.9375 0  136.9375 0  C 138.628875 0  140 1.56700000000001  140 3.5  C 140 3.5  140 28.5  140 28.5  C 140 30.433  138.628875 32  136.9375 32  C 136.9375 32  3.0625 32  3.0625 32  C 1.37112499999999 32  0 30.433  0 28.5  C 0 28.5  0 3.5  0 3.5  Z " fill-rule="evenodd" />
    </mask>
  </defs>
  <g transform="matrix(1 0 0 1 -647 -491 )">
    <path d="M 0 3.5  C 0 1.56700000000001  1.37112499999999 0  3.0625 0  C 3.0625 0  136.9375 0  136.9375 0  C 138.628875 0  140 1.56700000000001  140 3.5  C 140 3.5  140 28.5  140 28.5  C 140 30.433  138.628875 32  136.9375 32  C 136.9375 32  3.0625 32  3.0625 32  C 1.37112499999999 32  0 30.433  0 28.5  C 0 28.5  0 3.5  0 3.5  Z " fill-rule="nonzero" fill="#ffffff" stroke="none" transform="matrix(1 0 0 1 647 491 )" />
    <path d="M 0 3.5  C 0 1.56700000000001  1.37112499999999 0  3.0625 0  C 3.0625 0  136.9375 0  136.9375 0  C 138.628875 0  140 1.56700000000001  140 3.5  C 140 3.5  140 28.5  140 28.5  C 140 30.433  138.628875 32  136.9375 32  C 136.9375 32  3.0625 32  3.0625 32  C 1.37112499999999 32  0 30.433  0 28.5  C 0 28.5  0 3.5  0 3.5  Z " stroke-width="2" stroke="#ccced1" fill="none" transform="matrix(1 0 0 1 647 491 )" mask="url(#clip16)" />
  </g>
</svg>