<?xml version="1.0" encoding="utf-8"?>
<svg version="1.1" xmlns:xlink="http://www.w3.org/1999/xlink" width="48px" height="12px" xmlns="http://www.w3.org/2000/svg">
  <g transform="matrix(1 0 0 1 -238 -66 )">
    <path d="M 1.38 2.34  L 1.38 1.704  L 10.644 1.704  L 10.644 2.34  L 1.38 2.34  Z M 2.268 6.516  L 2.268 5.868  L 9.744 5.868  L 9.744 6.516  L 2.268 6.516  Z M 0.635999999999999 11  L 0.635999999999999 10.344  L 11.364 10.344  L 11.364 11  L 0.635999999999999 11  Z M 16.176 9.264  L 16.176 9.888  C 15.08 10.336  13.888 10.688  12.6 10.944  L 12.504 10.296  C 13.88 10.048  15.104 9.704  16.176 9.264  Z M 14.82 0.731999999999999  L 15.444 0.984  C 14.78 2.552  14.108 3.796  13.428 4.716  C 14.012 4.66  14.668 4.58  15.396 4.476  C 15.46 4.372  15.584 4.156  15.768 3.828  C 15.936 3.548  16.068 3.32  16.164 3.144  L 16.74 3.372  C 15.532 5.444  14.56 6.88  13.824 7.68  C 14.76 7.52  15.696 7.292  16.632 6.996  L 16.632 7.608  C 15.36 7.984  14.152 8.244  13.008 8.388  L 12.828 7.776  C 12.94 7.728  13.04 7.668  13.128 7.596  C 13.664 7.1  14.3 6.264  15.036 5.088  C 13.956 5.224  13.208 5.312  12.792 5.352  L 12.636 4.752  C 12.732 4.712  12.824 4.632  12.912 4.512  C 13.648 3.432  14.284 2.172  14.82 0.731999999999999  Z M 18.084 2.652  L 18.084 1.908  L 16.836 1.908  L 16.836 1.284  L 21.972 1.284  L 21.972 1.692  C 21.772 2.788  21.572 3.752  21.372 4.584  L 22.932 4.584  L 22.932 4.968  C 22.684 6.632  22.112 8.044  21.216 9.204  C 21.856 9.924  22.612 10.56  23.484 11.112  L 23.076 11.652  C 22.196 11.084  21.44 10.428  20.808 9.684  C 20.072 10.492  19.172 11.156  18.108 11.676  L 17.736 11.088  C 18.816 10.552  19.7 9.912  20.388 9.168  C 19.556 8.088  18.948 6.836  18.564 5.412  C 18.228 8.108  17.416 10.18  16.128 11.628  L 15.636 11.208  C 17.244 9.432  18.06 6.58  18.084 2.652  Z M 18.696 3.828  C 19 5.708  19.696 7.332  20.784 8.7  C 21.552 7.692  22.056 6.516  22.296 5.172  L 20.616 5.172  C 20.824 4.412  21.052 3.324  21.3 1.908  L 18.732 1.908  L 18.732 2.652  C 18.732 3.052  18.72 3.444  18.696 3.828  Z M 30.048 3.408  L 33.624 3.408  L 33.624 8.988  L 32.976 8.988  L 32.976 4.056  L 26.976 4.056  L 26.976 9.024  L 26.328 9.024  L 26.328 3.408  L 29.376 3.408  C 29.512 2.936  29.608 2.44  29.664 1.92  L 24.744 1.92  L 24.744 1.296  L 35.256 1.296  L 35.256 1.92  L 30.36 1.92  C 30.296 2.4  30.192 2.896  30.048 3.408  Z M 30.36 9.66  L 30.72 9.12  C 32.304 9.68  33.728 10.344  34.992 11.112  L 34.596 11.712  C 33.236 10.848  31.824 10.164  30.36 9.66  Z M 29.676 6.792  L 29.676 4.872  L 30.324 4.872  L 30.324 6.792  C 30.3 8.096  29.892 9.132  29.1 9.9  C 28.324 10.628  27.068 11.196  25.332 11.604  L 24.948 11.028  C 26.676 10.644  27.908 10.12  28.644 9.456  C 29.3 8.768  29.644 7.88  29.676 6.792  Z M 36.696 1.896  L 36.696 1.272  L 47.316 1.272  L 47.316 1.896  L 42.432 1.896  C 42.312 2.512  42.144 3.092  41.928 3.636  L 46.608 3.636  L 46.608 11.7  L 45.972 11.7  L 45.972 11.052  L 38.064 11.052  L 38.064 11.7  L 37.428 11.7  L 37.428 3.636  L 41.28 3.636  C 41.512 3.076  41.676 2.496  41.772 1.896  L 36.696 1.896  Z M 38.064 4.248  L 38.064 10.428  L 39.924 10.428  L 39.924 4.248  L 38.064 4.248  Z M 40.536 8.712  L 40.536 10.428  L 43.464 10.428  L 43.464 8.712  L 40.536 8.712  Z M 44.076 4.248  L 44.076 10.428  L 45.972 10.428  L 45.972 4.248  L 44.076 4.248  Z M 40.536 6.492  L 40.536 8.148  L 43.464 8.148  L 43.464 6.492  L 40.536 6.492  Z M 40.536 4.248  L 40.536 5.916  L 43.464 5.916  L 43.464 4.248  L 40.536 4.248  Z " fill-rule="nonzero" fill="#0e66fb" stroke="none" transform="matrix(1 0 0 1 238 66 )" />
  </g>
</svg>