<?xml version="1.0" encoding="utf-8"?>
<svg version="1.1" xmlns:xlink="http://www.w3.org/1999/xlink" width="28px" height="14px" xmlns="http://www.w3.org/2000/svg">
  <g transform="matrix(1 0 0 1 -879 -849 )">
    <path d="M 3.75199999999995 0.529999999999973  L 4.46600000000001 0.869999999999891  C 4.12099999999998 1.92000000000007  3.69100000000003 2.91000000000008  3.178 3.84999999999991  L 3.178 13.4000000000001  L 2.40800000000002 13.4000000000001  L 2.40800000000002 5.13000000000011  C 1.94100000000003 5.83999999999992  1.37199999999996 6.53999999999996  0.700000000000045 7.25  L 0.461999999999989 6.46000000000004  C 1.99300000000005 4.69000000000005  3.08900000000006 2.72000000000003  3.75199999999995 0.529999999999973  Z M 5.44600000000003 5.5  L 5.44600000000003 1.25999999999999  L 11.942 1.25999999999999  L 11.942 5.5  L 9.072 5.5  L 9.072 7.24000000000001  L 13.174 7.24000000000001  L 13.174 8  L 9.89800000000002 8  C 10.766 9.52999999999997  11.937 10.8299999999999  13.412 11.9200000000001  L 12.936 12.5599999999999  C 11.471 11.3699999999999  10.2569999999999 9.84999999999991  9.29600000000005 8  L 9.072 8  L 9.072 13.3699999999999  L 8.31600000000003 13.3699999999999  L 8.31600000000003 8  L 8.07799999999997 8  C 7.10699999999997 9.96000000000004  5.87099999999998 11.49  4.36800000000005 12.5899999999999  L 3.94799999999998 11.9200000000001  C 5.39499999999998 10.9300000000001  6.56600000000003 9.61999999999989  7.46199999999999 8  L 4.32600000000002 8  L 4.32600000000002 7.24000000000001  L 8.31600000000003 7.24000000000001  L 8.31600000000003 5.5  L 5.44600000000003 5.5  Z M 6.202 4.75999999999999  L 11.186 4.75999999999999  L 11.186 1.99000000000001  L 6.202 1.99000000000001  L 6.202 4.75999999999999  Z M 15.064 2.86999999999989  L 15.064 2.13000000000011  L 18.984 2.13000000000011  C 19.217 1.51999999999998  19.39 1  19.502 0.559999999999945  L 20.272 0.650000000000091  C 20.169 1.02999999999997  20.011 1.51999999999998  19.796 2.13000000000011  L 27.076 2.13000000000011  L 27.076 2.86999999999989  L 19.502 2.86999999999989  C 19.0170000000001 4.03999999999996  18.3819999999999 5.15000000000009  17.598 6.20000000000005  L 17.598 13.4000000000001  L 16.842 13.4000000000001  L 16.842 7.1400000000001  C 16.263 7.79999999999996  15.671 8.40000000000009  15.064 8.93000000000006  L 14.602 8.31999999999994  C 16.403 6.74000000000001  17.761 4.93000000000006  18.676 2.86999999999989  L 15.064 2.86999999999989  Z M 18.788 9.32999999999993  L 18.788 8.57999999999993  L 22.946 8.57999999999993  L 22.946 7.17000000000007  C 23.833 6.67000000000007  24.635 6.09999999999991  25.354 5.48000000000002  L 19.88 5.48000000000002  L 19.88 4.75999999999999  L 26.3339999999999 4.75999999999999  L 26.3339999999999 5.48000000000002  C 25.578 6.18000000000006  24.701 6.84999999999991  23.702 7.49000000000001  L 23.702 8.57999999999993  L 27.3 8.57999999999993  L 27.3 9.32999999999993  L 23.702 9.32999999999993  L 23.702 12.24  C 23.702 12.97  23.333 13.3299999999999  22.596 13.3299999999999  L 20.846 13.3299999999999  L 20.65 12.6199999999999  C 21.322 12.6300000000001  21.873 12.6400000000001  22.302 12.6400000000001  C 22.731 12.6400000000001  22.946 12.4300000000001  22.946 12  L 22.946 9.32999999999993  L 18.788 9.32999999999993  Z " fill-rule="nonzero" fill="#ffffff" stroke="none" transform="matrix(1 0 0 1 879 849 )" />
  </g>
</svg>