<?xml version="1.0" encoding="utf-8"?>
<svg version="1.1" xmlns:xlink="http://www.w3.org/1999/xlink" width="12px" height="14px" xmlns="http://www.w3.org/2000/svg">
  <defs>
    <mask fill="white" id="clip1">
      <path d="M 0.5 12.5  C 0.5 12.5  0.5 1.5  0.5 1.5  C 0.5 0.950000000000045  0.873000000000047 0.5  1.33299999999997 0.5  C 1.33299999999997 0.5  9.35599999999999 0.5  9.35599999999999 0.5  C 9.35599999999999 0.5  11.5 2.90000000000009  11.5 2.90000000000009  C 11.5 2.90000000000009  11.5 12.5  11.5 12.5  C 11.5 13.05  11.127 13.5  10.667 13.5  C 10.667 13.5  1.33299999999997 13.5  1.33299999999997 13.5  C 0.873000000000047 13.5  0.5 13.05  0.5 12.5  Z " fill-rule="evenodd" />
    </mask>
  </defs>
  <g transform="matrix(1 0 0 1 -861 -849 )">
    <path d="M 0.5 12.5  C 0.5 12.5  0.5 1.5  0.5 1.5  C 0.5 0.950000000000045  0.873000000000047 0.5  1.33299999999997 0.5  C 1.33299999999997 0.5  9.35599999999999 0.5  9.35599999999999 0.5  C 9.35599999999999 0.5  11.5 2.90000000000009  11.5 2.90000000000009  C 11.5 2.90000000000009  11.5 12.5  11.5 12.5  C 11.5 13.05  11.127 13.5  10.667 13.5  C 10.667 13.5  1.33299999999997 13.5  1.33299999999997 13.5  C 0.873000000000047 13.5  0.5 13.05  0.5 12.5  Z " fill-rule="nonzero" fill="#ffffff" stroke="none" fill-opacity="0" transform="matrix(1 0 0 1 861 849 )" />
    <path d="M 0.5 12.5  C 0.5 12.5  0.5 1.5  0.5 1.5  C 0.5 0.950000000000045  0.873000000000047 0.5  1.33299999999997 0.5  C 1.33299999999997 0.5  9.35599999999999 0.5  9.35599999999999 0.5  C 9.35599999999999 0.5  11.5 2.90000000000009  11.5 2.90000000000009  C 11.5 2.90000000000009  11.5 12.5  11.5 12.5  C 11.5 13.05  11.127 13.5  10.667 13.5  C 10.667 13.5  1.33299999999997 13.5  1.33299999999997 13.5  C 0.873000000000047 13.5  0.5 13.05  0.5 12.5  Z " stroke-width="2" stroke="#ffffff" fill="none" transform="matrix(1 0 0 1 861 849 )" mask="url(#clip1)" />
  </g>
</svg>