<?xml version="1.0" encoding="utf-8"?>
<svg version="1.1" xmlns:xlink="http://www.w3.org/1999/xlink" width="5px" height="5px" xmlns="http://www.w3.org/2000/svg">
  <defs>
    <mask fill="white" id="clip2">
      <path d="M 0.16700000000003 0.5  C 0.16700000000003 0.5  4.50300000000004 0.5  4.50300000000004 0.5  C 4.50300000000004 0.5  4.5 3.96000000000004  4.5 3.96000000000004  C 4.5 4.06999999999994  4.351 4.17000000000007  4.16700000000003 4.17000000000007  C 4.16700000000003 4.17000000000007  0.5 4.17000000000007  0.5 4.17000000000007  C 0.316000000000031 4.17000000000007  0.16700000000003 4.06999999999994  0.16700000000003 3.96000000000004  C 0.16700000000003 3.96000000000004  0.16700000000003 0.5  0.16700000000003 0.5  Z " fill-rule="evenodd" />
    </mask>
  </defs>
  <g transform="matrix(1 0 0 1 -863 -849 )">
    <path d="M 0.16700000000003 0.5  C 0.16700000000003 0.5  4.50300000000004 0.5  4.50300000000004 0.5  C 4.50300000000004 0.5  4.5 3.96000000000004  4.5 3.96000000000004  C 4.5 4.06999999999994  4.351 4.17000000000007  4.16700000000003 4.17000000000007  C 4.16700000000003 4.17000000000007  0.5 4.17000000000007  0.5 4.17000000000007  C 0.316000000000031 4.17000000000007  0.16700000000003 4.06999999999994  0.16700000000003 3.96000000000004  C 0.16700000000003 3.96000000000004  0.16700000000003 0.5  0.16700000000003 0.5  Z " fill-rule="nonzero" fill="#ffffff" stroke="none" fill-opacity="0" transform="matrix(1 0 0 1 863 849 )" />
    <path d="M 0.16700000000003 0.5  C 0.16700000000003 0.5  4.50300000000004 0.5  4.50300000000004 0.5  C 4.50300000000004 0.5  4.5 3.96000000000004  4.5 3.96000000000004  C 4.5 4.06999999999994  4.351 4.17000000000007  4.16700000000003 4.17000000000007  C 4.16700000000003 4.17000000000007  0.5 4.17000000000007  0.5 4.17000000000007  C 0.316000000000031 4.17000000000007  0.16700000000003 4.06999999999994  0.16700000000003 3.96000000000004  C 0.16700000000003 3.96000000000004  0.16700000000003 0.5  0.16700000000003 0.5  Z " stroke-width="2" stroke="#ffffff" fill="none" transform="matrix(1 0 0 1 863 849 )" mask="url(#clip2)" />
  </g>
</svg>