<?xml version="1.0" encoding="utf-8"?>
<svg version="1.1" xmlns:xlink="http://www.w3.org/1999/xlink" width="12px" height="13px" xmlns="http://www.w3.org/2000/svg">
  <g transform="matrix(1 0 0 1 -989 -313 )">
    <path d="M 4 0.942000000000007  L 4 1.94100000000003  L 8 1.94100000000003  L 8 0.942000000000007  L 9 0.942000000000007  L 9 1.94100000000003  L 12 1.94100000000003  L 12 13  L 0 13  L 0 1.94100000000003  L 3 1.94100000000003  L 3 0.942000000000007  L 4 0.942000000000007  Z M 1 6  L 1 12  L 11 12  L 11 6  L 1 6  Z M 1 2.94000000000005  L 1 5  L 11 5  L 11 2.94000000000005  L 9 2.94000000000005  L 9 3.94000000000006  L 8 3.94000000000006  L 8 2.94000000000005  L 4 2.94000000000005  L 4 3.94000000000006  L 3 3.94000000000006  L 3 2.94000000000005  L 1 2.94000000000005  Z " fill-rule="nonzero" fill="#000000" stroke="none" fill-opacity="0.247058823529412" transform="matrix(1 0 0 1 989 313 )" />
  </g>
</svg>