<?xml version="1.0" encoding="utf-8"?>
<svg version="1.1" xmlns:xlink="http://www.w3.org/1999/xlink" width="32px" height="32px" xmlns="http://www.w3.org/2000/svg">
  <g transform="matrix(1 0 0 1 -2480 -368 )">
    <path d="M 2496 368.5  C 2504.68 368.5  2511.5 375.32  2511.5 384  C 2511.5 392.68  2504.68 399.5  2496 399.5  C 2487.32 399.5  2480.5 392.68  2480.5 384  C 2480.5 375.32  2487.32 368.5  2496 368.5  Z " fill-rule="nonzero" fill="#ffffff" stroke="none" fill-opacity="0" />
    <path d="M 2496 368.5  C 2504.68 368.5  2511.5 375.32  2511.5 384  C 2511.5 392.68  2504.68 399.5  2496 399.5  C 2487.32 399.5  2480.5 392.68  2480.5 384  C 2480.5 375.32  2487.32 368.5  2496 368.5  Z " stroke-width="1" stroke="#000819" fill="none" stroke-opacity="0.149019607843137" />
  </g>
</svg>