<?xml version="1.0" encoding="utf-8"?>
<svg version="1.1" xmlns:xlink="http://www.w3.org/1999/xlink" width="27px" height="14px" xmlns="http://www.w3.org/2000/svg">
  <g transform="matrix(1 0 0 1 -792 -849 )">
    <path d="M 0.812000000000012 1.93000000000006  L 0.812000000000012 1.22000000000003  L 7.44799999999998 1.22000000000003  L 7.44799999999998 1.93000000000006  L 6.25800000000004 1.93000000000006  L 6.25800000000004 10.0699999999999  L 7.65800000000001 9.70000000000005  L 7.65800000000001 10.46  C 7.48099999999999 10.5  7.24699999999996 10.55  6.95799999999997 10.6300000000001  C 6.62199999999996 10.72  6.38900000000001 10.78  6.25800000000004 10.8099999999999  L 6.25800000000004 13.4300000000001  L 5.50199999999995 13.4300000000001  L 5.50199999999995 10.99  C 4.04600000000005 11.3099999999999  2.51099999999997 11.5899999999999  0.895999999999958 11.8299999999999  L 0.714000000000055 11.0899999999999  L 1.96000000000004 10.9200000000001  L 1.96000000000004 1.93000000000006  L 0.812000000000012 1.93000000000006  Z M 2.71600000000001 8.1099999999999  L 2.71600000000001 10.8  C 3.63999999999999 10.6300000000001  4.56899999999996 10.45  5.50199999999995 10.25  L 5.50199999999995 8.1099999999999  L 2.71600000000001 8.1099999999999  Z M 2.71600000000001 5.05999999999995  L 2.71600000000001 7.42000000000007  L 5.50199999999995 7.42000000000007  L 5.50199999999995 5.05999999999995  L 2.71600000000001 5.05999999999995  Z M 2.71600000000001 1.93000000000006  L 2.71600000000001 4.3599999999999  L 5.50199999999995 4.3599999999999  L 5.50199999999995 1.93000000000006  L 2.71600000000001 1.93000000000006  Z M 12.082 2.69000000000005  L 8.76400000000001 2.69000000000005  C 8.95100000000002 4.86999999999989  9.49199999999996 6.86999999999989  10.388 8.67000000000007  C 11.237 6.98000000000002  11.802 4.99000000000001  12.082 2.69000000000005  Z M 7.08399999999995 12.78  C 8.25099999999998 11.8599999999999  9.221 10.73  9.99599999999998 9.40000000000009  C 8.91300000000001 7.33999999999992  8.274 5.1099999999999  8.07799999999997 2.69000000000005  L 7.57399999999996 2.69000000000005  L 7.57399999999996 1.96000000000004  L 12.782 1.96000000000004  L 12.782 2.66000000000008  C 12.474 5.29999999999995  11.821 7.56999999999994  10.822 9.45000000000005  C 11.5309999999999 10.6700000000001  12.395 11.78  13.412 12.77  L 12.908 13.3599999999999  C 11.937 12.3800000000001  11.107 11.3099999999999  10.4160000000001 10.1500000000001  C 9.63199999999995 11.4300000000001  8.68499999999995 12.5  7.57399999999996 13.3699999999999  L 7.08399999999995 12.78  Z M 22.484 4.47000000000003  L 22.484 0.549999999999955  L 23.24 0.549999999999955  L 23.24 4.47000000000003  L 26.502 4.47000000000003  L 26.502 12.04  C 26.502 12.8399999999999  26.115 13.25  25.34 13.25  L 23.492 13.25  L 23.282 12.5  L 25.088 12.53  C 25.527 12.53  25.746 12.3099999999999  25.746 11.8699999999999  L 25.746 10.1099999999999  L 20.006 10.1099999999999  L 20.006 13.3199999999999  L 19.25 13.3199999999999  L 19.25 4.47000000000003  L 22.484 4.47000000000003  Z M 25.746 7.69000000000005  L 20.006 7.69000000000005  L 20.006 9.44000000000005  L 25.746 9.44000000000005  L 25.746 7.69000000000005  Z M 20.006 7.02999999999997  L 25.746 7.02999999999997  L 25.746 5.21000000000004  L 20.006 5.21000000000004  L 20.006 7.02999999999997  Z M 18.788 1.5  L 19.46 1.16000000000008  C 20.095 1.95000000000005  20.645 2.74000000000001  21.112 3.52999999999997  L 20.454 3.84999999999991  C 19.903 2.94000000000005  19.348 2.15000000000009  18.788 1.5  Z M 26.1799999999999 0.980000000000018  L 26.824 1.28999999999996  C 26.441 2.15000000000009  25.928 2.99000000000001  25.284 3.81999999999994  L 24.64 3.5  C 25.256 2.69000000000005  25.769 1.84999999999991  26.1799999999999 0.980000000000018  Z M 17.388 7.83999999999992  L 18.046 8.1099999999999  C 17.309 9.99000000000001  16.52 11.71  15.6799999999999 13.25  L 14.966 12.9400000000001  C 15.89 11.28  16.697 9.57999999999993  17.388 7.83999999999992  Z M 15.134 1.32999999999993  L 15.6799999999999 0.799999999999955  C 16.772 1.54999999999995  17.668 2.26999999999998  18.3680000000001 2.97000000000003  L 17.822 3.51999999999998  C 17.15 2.81999999999994  16.254 2.08999999999992  15.134 1.32999999999993  Z M 14.7140000000001 4.72000000000003  L 15.246 4.19000000000005  C 16.254 4.88000000000011  17.1130000000001 5.57999999999993  17.822 6.28999999999996  L 17.276 6.81999999999994  C 16.6319999999999 6.16000000000008  15.778 5.46000000000004  14.7140000000001 4.72000000000003  Z " fill-rule="nonzero" fill="#0e66fb" stroke="none" transform="matrix(1 0 0 1 792 849 )" />
  </g>
</svg>