<?xml version="1.0" encoding="utf-8"?>
<svg version="1.1" xmlns:xlink="http://www.w3.org/1999/xlink" width="14px" height="14px" xmlns="http://www.w3.org/2000/svg">
  <g transform="matrix(1 0 0 1 -773 -849 )">
    <path d="M 780 849  C 783.92 849  787 852.08  787 856  C 787 859.92  783.92 863  780 863  C 776.08 863  773 859.92  773 856  C 773 852.08  776.08 849  780 849  Z " fill-rule="nonzero" fill="#ffffff" stroke="none" />
    <path d="M 780 849.5  C 783.64 849.5  786.5 852.36  786.5 856  C 786.5 859.64  783.64 862.5  780 862.5  C 776.36 862.5  773.5 859.64  773.5 856  C 773.5 852.36  776.36 849.5  780 849.5  Z " stroke-width="1" stroke="#0e66fb" fill="none" />
  </g>
</svg>