<?xml version="1.0" encoding="utf-8"?>
<svg version="1.1" xmlns:xlink="http://www.w3.org/1999/xlink" width="366px" height="32px" xmlns="http://www.w3.org/2000/svg">
  <g transform="matrix(1 0 0 1 -257 -221 )">
    <path d="M 258 225  A 3 3 0 0 1 261 222 L 619 222  A 3 3 0 0 1 622 225 L 622 249  A 3 3 0 0 1 619 252 L 261 252  A 3 3 0 0 1 258 249 L 258 225  Z " fill-rule="nonzero" fill="#ffffff" stroke="none" fill-opacity="0" />
    <path d="M 257.5 225  A 3.5 3.5 0 0 1 261 221.5 L 619 221.5  A 3.5 3.5 0 0 1 622.5 225 L 622.5 249  A 3.5 3.5 0 0 1 619 252.5 L 261 252.5  A 3.5 3.5 0 0 1 257.5 249 L 257.5 225  Z " stroke-width="1" stroke="#000000" fill="none" stroke-opacity="0.149019607843137" />
  </g>
</svg>