<?xml version="1.0" encoding="utf-8"?>
<svg version="1.1" xmlns:xlink="http://www.w3.org/1999/xlink" width="232px" height="33px" xmlns="http://www.w3.org/2000/svg">
  <defs>
    <mask fill="white" id="clip4">
      <path d="M 0 4.447  C 0 2.51400000000001  0.987891304347826 0.947000000000003  2.20652173913044 0.947000000000003  C 2.20652173913044 0.947000000000003  229.79347826087 0.947000000000003  229.79347826087 0.947000000000003  C 231.012108695652 0.947000000000003  232 2.51400000000001  232 4.447  C 232 4.447  232 29.4299999999999  232 29.4299999999999  C 232 31.3630000000001  231.012108695652 32.9299999999999  229.79347826087 32.9299999999999  C 229.79347826087 32.9299999999999  2.20652173913044 32.9299999999999  2.20652173913044 32.9299999999999  C 0.987891304347826 32.9299999999999  0 31.3630000000001  0 29.4299999999999  C 0 29.4299999999999  0 4.447  0 4.447  Z " fill-rule="evenodd" />
    </mask>
  </defs>
  <g transform="matrix(1 0 0 1 -783 -303 )">
    <path d="M 0 4.447  C 0 2.51400000000001  0.987891304347826 0.947000000000003  2.20652173913044 0.947000000000003  C 2.20652173913044 0.947000000000003  229.79347826087 0.947000000000003  229.79347826087 0.947000000000003  C 231.012108695652 0.947000000000003  232 2.51400000000001  232 4.447  C 232 4.447  232 29.4299999999999  232 29.4299999999999  C 232 31.3630000000001  231.012108695652 32.9299999999999  229.79347826087 32.9299999999999  C 229.79347826087 32.9299999999999  2.20652173913044 32.9299999999999  2.20652173913044 32.9299999999999  C 0.987891304347826 32.9299999999999  0 31.3630000000001  0 29.4299999999999  C 0 29.4299999999999  0 4.447  0 4.447  Z " fill-rule="nonzero" fill="#ffffff" stroke="none" transform="matrix(1 0 0 1 783 303 )" />
    <path d="M 0 4.447  C 0 2.51400000000001  0.987891304347826 0.947000000000003  2.20652173913044 0.947000000000003  C 2.20652173913044 0.947000000000003  229.79347826087 0.947000000000003  229.79347826087 0.947000000000003  C 231.012108695652 0.947000000000003  232 2.51400000000001  232 4.447  C 232 4.447  232 29.4299999999999  232 29.4299999999999  C 232 31.3630000000001  231.012108695652 32.9299999999999  229.79347826087 32.9299999999999  C 229.79347826087 32.9299999999999  2.20652173913044 32.9299999999999  2.20652173913044 32.9299999999999  C 0.987891304347826 32.9299999999999  0 31.3630000000001  0 29.4299999999999  C 0 29.4299999999999  0 4.447  0 4.447  Z " stroke-width="2" stroke="#e6e6e8" fill="none" transform="matrix(1 0 0 1 783 303 )" mask="url(#clip4)" />
  </g>
</svg>