<?xml version="1.0" encoding="utf-8"?>
<svg version="1.1" xmlns:xlink="http://www.w3.org/1999/xlink" width="16px" height="16px" xmlns="http://www.w3.org/2000/svg">
  <g transform="matrix(1 0 0 1 -722 -230 )">
    <path d="M 730 230  C 734.48 230  738 233.52  738 238  C 738 242.48  734.48 246  730 246  C 725.52 246  722 242.48  722 238  C 722 233.52  725.52 230  730 230  Z " fill-rule="nonzero" fill="#ffffff" stroke="none" />
    <path d="M 730 230.5  C 734.2 230.5  737.5 233.8  737.5 238  C 737.5 242.2  734.2 245.5  730 245.5  C 725.8 245.5  722.5 242.2  722.5 238  C 722.5 233.8  725.8 230.5  730 230.5  Z " stroke-width="1" stroke="#bfc1c5" fill="none" />
  </g>
</svg>