<?xml version="1.0" encoding="utf-8"?>
<svg version="1.1" xmlns:xlink="http://www.w3.org/1999/xlink" width="16px" height="16px" xmlns="http://www.w3.org/2000/svg">
  <g transform="matrix(1 0 0 1 -647 -230 )">
    <path d="M 0 8  C 0 3.58199999999999  3.58199999999999 0  8 0  C 12.418 0  16 3.58199999999999  16 8  C 16 12.418  12.418 16  8 16  C 3.58199999999999 16  0 12.418  0 8  Z M 12 8  C 12 5.791  10.209 4  8 4  C 5.791 4  4 5.791  4 8  C 4 10.209  5.791 12  8 12  C 10.209 12  12 10.209  12 8  Z " fill-rule="nonzero" fill="#0e66fb" stroke="none" transform="matrix(1 0 0 1 647 230 )" />
  </g>
</svg>