<?xml version="1.0" encoding="utf-8"?>
<svg version="1.1" xmlns:xlink="http://www.w3.org/1999/xlink" width="120px" height="32px" xmlns="http://www.w3.org/2000/svg">
  <g transform="matrix(1 0 0 1 -647 -304 )">
    <path d="M 648 308  A 3 3 0 0 1 651 305 L 763 305  A 3 3 0 0 1 766 308 L 766 332  A 3 3 0 0 1 763 335 L 651 335  A 3 3 0 0 1 648 332 L 648 308  Z " fill-rule="nonzero" fill="#ffffff" stroke="none" fill-opacity="0" />
    <path d="M 647.5 308  A 3.5 3.5 0 0 1 651 304.5 L 763 304.5  A 3.5 3.5 0 0 1 766.5 308 L 766.5 332  A 3.5 3.5 0 0 1 763 335.5 L 651 335.5  A 3.5 3.5 0 0 1 647.5 332 L 647.5 308  Z " stroke-width="1" stroke="#000000" fill="none" stroke-opacity="0.149019607843137" />
  </g>
</svg>