<?xml version="1.0" encoding="utf-8"?>
<svg version="1.1" xmlns:xlink="http://www.w3.org/1999/xlink" width="421px" height="40px" xmlns="http://www.w3.org/2000/svg">
  <g transform="matrix(1 0 0 1 -509 -361 )">
    <path d="M 510 365  A 3 3 0 0 1 513 362 L 926 362  A 3 3 0 0 1 929 365 L 929 397  A 3 3 0 0 1 926 400 L 513 400  A 3 3 0 0 1 510 397 L 510 365  Z " fill-rule="nonzero" fill="#ffffff" stroke="none" fill-opacity="0" />
    <path d="M 509.5 365  A 3.5 3.5 0 0 1 513 361.5 L 926 361.5  A 3.5 3.5 0 0 1 929.5 365 L 929.5 397  A 3.5 3.5 0 0 1 926 400.5 L 513 400.5  A 3.5 3.5 0 0 1 509.5 397 L 509.5 365  Z " stroke-width="1" stroke="#000000" fill="none" stroke-opacity="0.149019607843137" />
  </g>
</svg>