<?xml version="1.0" encoding="utf-8"?>
<svg version="1.1" xmlns:xlink="http://www.w3.org/1999/xlink" width="24px" height="24px" xmlns="http://www.w3.org/2000/svg">
  <g transform="matrix(1 0 0 1 -314 -645 )">
    <path d="M 326 650.5  C 329.64 650.5  332.5 653.36  332.5 657  C 332.5 660.64  329.64 663.5  326 663.5  C 322.36 663.5  319.5 660.64  319.5 657  C 319.5 653.36  322.36 650.5  326 650.5  Z " fill-rule="nonzero" fill="#ffffff" stroke="none" />
    <path d="M 326 648  C 331.04 648  335 651.96  335 657  C 335 662.04  331.04 666  326 666  C 320.96 666  317 662.04  317 657  C 317 651.96  320.96 648  326 648  Z " stroke-width="6" stroke="#000000" fill="none" stroke-opacity="0.0392156862745098" />
  </g>
</svg>