<?xml version="1.0" encoding="utf-8"?>
<svg version="1.1" xmlns:xlink="http://www.w3.org/1999/xlink" width="80px" height="708px" xmlns="http://www.w3.org/2000/svg">
  <defs>
    <mask fill="white" id="clip21">
      <path d="M 0 708  L 0 35.4  C 0 15.8415000000002  0.158133509933775 0  0.353200883002208 0  L 79.6467991169978 0  C 79.8419426048565 0  80 15.8415000000002  80 35.4  L 80 708  L 0 708  Z " fill-rule="evenodd" />
    </mask>
  </defs>
  <g transform="matrix(1 0 0 1 -290 0 )">
    <path d="M 0 708  L 0 35.4  C 0 15.8415000000002  0.158133509933775 0  0.353200883002208 0  L 79.6467991169978 0  C 79.8419426048565 0  80 15.8415000000002  80 35.4  L 80 708  L 0 708  Z " fill-rule="nonzero" fill="#f2f2f2" stroke="none" transform="matrix(1 0 0 1 290 0 )" />
    <path d="M 0 708  L 0 35.4  C 0 15.8415000000002  0.158133509933775 0  0.353200883002208 0  L 79.6467991169978 0  C 79.8419426048565 0  80 15.8415000000002  80 35.4  L 80 708  L 0 708  Z " stroke-width="2" stroke="#f2f2f2" fill="none" transform="matrix(1 0 0 1 290 0 )" mask="url(#clip21)" />
  </g>
</svg>