<?xml version="1.0" encoding="utf-8"?>
<svg version="1.1" xmlns:xlink="http://www.w3.org/1999/xlink" width="240px" height="542px" xmlns="http://www.w3.org/2000/svg">
  <defs>
    <mask fill="white" id="clip22">
      <path d="M 0 542  L 0 27.1  C 0 12.1272500000001  0.474400529801325 0  1.05960264900662 0  L 238.940397350993 0  C 239.52582781457 0  240 12.1272500000001  240 27.1  L 240 542  L 0 542  Z " fill-rule="evenodd" />
    </mask>
  </defs>
  <g transform="matrix(1 0 0 1 -257 -232 )">
    <path d="M 0 542  L 0 27.1  C 0 12.1272500000001  0.474400529801325 0  1.05960264900662 0  L 238.940397350993 0  C 239.52582781457 0  240 12.1272500000001  240 27.1  L 240 542  L 0 542  Z " fill-rule="nonzero" fill="#f2f2f2" stroke="none" transform="matrix(1 0 0 1 257 232 )" />
    <path d="M 0 542  L 0 27.1  C 0 12.1272500000001  0.474400529801325 0  1.05960264900662 0  L 238.940397350993 0  C 239.52582781457 0  240 12.1272500000001  240 27.1  L 240 542  L 0 542  Z " stroke-width="2" stroke="#f2f2f2" fill="none" transform="matrix(1 0 0 1 257 232 )" mask="url(#clip22)" />
  </g>
</svg>