<?xml version="1.0" encoding="utf-8"?>
<svg version="1.1" xmlns:xlink="http://www.w3.org/1999/xlink" width="600px" height="60px" xmlns="http://www.w3.org/2000/svg">
  <g transform="matrix(1 0 0 1 -529 -495 )">
    <path d="M 0 3.5  C 0 1.56700000000001  1.9266393442623 0  4.30327868852459 0  C 4.30327868852459 0  595.696721311475 0  595.696721311475 0  C 598.073360655738 0  600 1.56700000000001  600 3.5  C 600 3.5  600 56.5  600 56.5  C 600 58.433  598.073360655738 60  595.696721311475 60  C 595.696721311475 60  4.30327868852459 60  4.30327868852459 60  C 1.9266393442623 60  0 58.433  0 56.5  C 0 56.5  0 3.5  0 3.5  Z " fill-rule="nonzero" fill="#ffffff" stroke="none" fill-opacity="0" transform="matrix(1 0 0 1 529 495 )" />
  </g>
</svg>