<?xml version="1.0" encoding="utf-8"?>
<svg version="1.1" xmlns:xlink="http://www.w3.org/1999/xlink" width="1188px" height="56px" xmlns="http://www.w3.org/2000/svg">
  <defs>
    <mask fill="white" id="clip23">
      <path d="M 0 56  L 0 8  C 0 3.58172  3.58172 0  8 0  L 1180 0  C 1184.42 0  1188 3.58172  1188 8  L 1188 56  L 0 56  Z " fill-rule="evenodd" />
    </mask>
  </defs>
  <g transform="matrix(1 0 0 1 -1501 -104 )">
    <path d="M 0 56  L 0 8  C 0 3.58172  3.58172 0  8 0  L 1180 0  C 1184.42 0  1188 3.58172  1188 8  L 1188 56  L 0 56  Z " fill-rule="nonzero" fill="#ffffff" stroke="none" transform="matrix(1 0 0 1 1501 104 )" />
    <path d="M 0 56  L 0 8  C 0 3.58172  3.58172 0  8 0  L 1180 0  C 1184.42 0  1188 3.58172  1188 8  L 1188 56  L 0 56  Z " stroke-width="2" stroke="#d7d7d7" fill="none" transform="matrix(1 0 0 1 1501 104 )" mask="url(#clip23)" />
  </g>
</svg>